<svg xmlns="http://www.w3.org/2000/svg" viewBox="0 0 370 370" height="250" width="250"><g data-name="Scenes"><path d="M295.29 282.68s18.29 19.25 5.78 30-44.29 6.26-44.29 6.26v16.85h-98.59a126.81 126.81 0 0 0-5.5-34.42 110 110 0 1 1 103-2.59c12.59.61 25.84-5.28 39.6-16.1z" fill="#ffffff"></path><path d="M294.59 143.76a110.1 110.1 0 0 1-111.36 144.87 110 110 0 0 1-85.78-50.71 110.12 110.12 0 0 0 97.27 74.74 110 110 0 0 0 99.87-168.89z" fill="#f0f0f0"></path><path d="M256.78 318.92s31.79 4.45 44.29-6.27-5.78-30-5.78-30c-13.77 10.82-27 16.71-39.56 16.07" stroke="#45413c" stroke-linecap="round" stroke-linejoin="round" stroke-width="4" fill="#ffffff"></path><path d="M174 210.16a11.1 11.1 0 1 1 22.19.38l-.18 11.1c-7.53-4.67-14.92-4.46-22.2-.38z" fill="#ffb0ca" stroke="#45413c" stroke-linecap="round" stroke-linejoin="round" stroke-width="4"></path><path fill="none" stroke="#45413c" stroke-linecap="round" stroke-linejoin="round" stroke-width="4" d="M256.78 335.77v-25.94m-107.1-16.09c8.74 16.4 8.51 42 8.51 42"></path><path d="M243.67 304.61a110.06 110.06 0 1 0-48.95 8" fill="none" stroke="#45413c" stroke-linecap="round" stroke-linejoin="round" stroke-width="4"></path><path d="M159.28 178c5.12-1.15 10.77 9.57 10.77 9.57s-6.43-1.81-11.86.8" fill="none" stroke="#45413c" stroke-linecap="round" stroke-linejoin="round" stroke-width="4"></path><path d="M295.85 247.67a16.26 16.26 0 0 1 4-18.46 67.73 67.73 0 1 0-40.71 17.47 16.29 16.29 0 0 1 16.14 9.81z" fill="#525252" stroke="#45413c" stroke-linecap="round" stroke-linejoin="round" stroke-width="4"></path><path d="m280.19 267.91 23 53.7a11.19 11.19 0 0 0 20.56-8.82l-23-53.7z" fill="#ffbe3d" stroke="#45413c" stroke-linecap="round" stroke-linejoin="round" stroke-width="4"></path><circle cx="254.26" cy="179.11" r="55.19" fill="#00b8f0"></circle><circle cx="248.2" cy="177.94" r="30.28" fill="#b8ecff"></circle><path fill="#c0dceb" stroke="#45413c" stroke-linecap="round" stroke-linejoin="round" stroke-width="4" d="m278.832 254.996 13.473-5.78 4.896 11.414-13.472 5.78z"></path><circle cx="243.46" cy="189.07" r="4.34" fill="#45413c"></circle><path d="m267.31 125.48-66.69 66.69a55.6 55.6 0 0 0 2.92 8.7 54.46 54.46 0 0 0 2.73 5.52l75.27-75.26a55.34 55.34 0 0 0-14.23-5.65z" fill="#80ddff"></path><path d="m245 147.83-26.91 26.87a30.58 30.58 0 0 0 3 16.83l40.65-40.65a30.23 30.23 0 0 0-16.74-3.05z" fill="#ffffff"></path><path d="M305 157.34c-.28-.64-.56-1.27-.86-1.9L230.59 229a55.22 55.22 0 0 0 29.77 5l48.76-48.76a55 55 0 0 0-4.12-27.9z" fill="#80ddff"></path><path d="M254.94 207.46a30.28 30.28 0 0 0 23.37-26.21L251.52 208a31.32 31.32 0 0 0 3.42-.54z" fill="#ffffff"></path><circle cx="254.26" cy="179.11" r="55.19" fill="none" stroke="#45413c" stroke-linecap="round" stroke-linejoin="round" stroke-width="4"></circle><circle cx="248.2" cy="177.94" r="30.28" fill="none" stroke="#45413c" stroke-linecap="round" stroke-linejoin="round" stroke-width="4"></circle><path fill="none" stroke="#45413c" stroke-linecap="round" stroke-linejoin="round" stroke-width="4" d="m227.94 155.44-3.42-6.52m15.37-.09-.77-5.66m12.66 4.7.65-6.77m9.36 9.78 3.13-6.35"></path><circle cx="302.87" cy="295.39" r="21.83" fill="#ffffff"></circle><path d="M324.31 291.29a21.82 21.82 0 0 0-2.36-6.51 21.84 21.84 0 0 1-40.89 9.48 21.83 21.83 0 1 0 43.25-3z" fill="#f0f0f0"></path><circle cx="302.87" cy="295.39" r="21.83" fill="none" stroke="#45413c" stroke-linecap="round" stroke-linejoin="round" stroke-width="4"></circle><path d="M41.79 131.75c-3.07 0-4.75-2.45-5.3-3.25-.71-1-2.59-3.76-1-6.81a10 10 0 0 0 .49-1c-1.28-2.08-2.8-4.32-4.4-6.68l-2.18-3.25c-.39-.59-.79-1.24-1.19-1.91s-.75-1.25-1.14-1.84a13.73 13.73 0 0 0-1.2-1.59l-.24.08a5.39 5.39 0 0 1-1.81.32 6.35 6.35 0 0 1-5.15-3.07 8.44 8.44 0 0 1-1.61-4.64c0-3.65 3.74-6.85 7.42-9.48l1.38-1c4.29-3 7-4.27 9.46-4.27a6 6 0 0 1 5.18 2.83l.06.08.38.65a7.09 7.09 0 0 1-.24 8c.44.78 1 1.65 1.48 2.46l.71 1.13 3 4.93c.83 1.35 1.64 2.82 2.42 4.24.62 1.12 1.21 2.19 1.78 3.16.4 0 .79-.07 1.18-.07 2.88 0 4.32 1.78 5.35 3.53 1.86 3.14 1.66 6.39-.54 8.7a51.8 51.8 0 0 1-6 4.7l-.64.46c-3 2.19-5.2 3.62-7.59 3.62z" fill="#ffcd21"></path><path d="M35.31 86.33A3.1 3.1 0 0 1 38 87.85l.33.56c1.32 2.23.67 3.78-.66 5.53a1.27 1.27 0 0 0-.16 1.38c.7 1.42 1.9 3.26 2.79 4.72l3 4.93c1.56 2.57 3.12 5.64 4.59 8a1.54 1.54 0 0 0 1.33.92h.28a11.66 11.66 0 0 1 1.74-.18c1.18 0 1.83.46 2.77 2.05s1.35 3.55-.13 5.11a63.9 63.9 0 0 1-6.26 4.79c-2.66 1.92-4.41 3.06-5.84 3.06-1 0-1.91-.6-2.83-2-.77-1.11-1.5-2.41-.81-3.73.82-1.58 1.17-2.68.82-3.26-2-3.27-4.48-6.84-7.08-10.75-.75-1.13-1.52-2.53-2.34-3.75a10.75 10.75 0 0 0-2.29-2.69 2 2 0 0 0-1.12-.33 4.53 4.53 0 0 0-1.54.35 2.48 2.48 0 0 1-.79.14 3.46 3.46 0 0 1-2.67-1.7 5.59 5.59 0 0 1-1.08-2.86C20 95.79 23.41 93 26.21 91l1.37-1c3.43-2.43 5.91-3.72 7.73-3.72m0-6c-3.11 0-6.35 1.4-11.19 4.82l-1.4 1c-4.28 3.12-8.66 6.9-8.67 12a11.59 11.59 0 0 0 2.14 6.3 9.22 9.22 0 0 0 7.62 4.38 7.5 7.5 0 0 0 .82 0c.32.48.65 1 1 1.61s.83 1.37 1.27 2c.75 1.12 1.49 2.21 2.21 3.27 1.22 1.82 2.4 3.56 3.46 5.2-1.28 2.93-.79 6.07 1.46 9.34 2.07 3 4.69 4.55 7.77 4.55 3.28 0 5.94-1.74 9.35-4.19l.59-.43a51.06 51.06 0 0 0 6.51-5.1c3.12-3.28 3.48-8 .95-12.29a9 9 0 0 0-7.41-5l-.87-1.56c-.79-1.44-1.62-2.93-2.47-4.34l-2.3-3.78-.7-1.15c-.22-.36-.47-.75-.71-1.15l-.6-1a9.74 9.74 0 0 0-.62-9.45l-.17-.29-.16-.27-.1-.17-.09-.11a9.07 9.07 0 0 0-7.66-4.14z" fill="#45413c"></path><path d="M62.76 118.11c-4.62 0-9.31-4.61-15.23-14.94L46.3 101a84.85 84.85 0 0 1-5.54-11.86 10.43 10.43 0 0 1 4.14-12.85 13.84 13.84 0 0 1 7.22-2 16.44 16.44 0 0 1 6.09 1.24A86.29 86.29 0 0 1 66.66 80c-2.32-5.92-3.94-13.59 3.6-17.16a7.59 7.59 0 0 1 3.24-.71 6.41 6.41 0 0 1 4.33 1.55c2.28 1.7 4.25 5.81 7 12.67l.45 1.1c3.24 8 4.92 15.78 4.73 21.84v.3a9.57 9.57 0 0 1-5.25 7 8.23 8.23 0 0 1-3.61.78c-4.21 0-9.06-2.74-13.62-5.67A63.58 63.58 0 0 1 70 108c1 3.41-1.24 7.61-3.92 9.23a3.76 3.76 0 0 1-.71.33 6.24 6.24 0 0 1-2.61.55z" fill="#ffcd21"></path><path d="M73.5 65.13a3.41 3.41 0 0 1 2.42.87c2 1.32 4.39 7.12 6.15 11.47.18.44.27.66.44 1.1 2.92 7.21 4.71 14.65 4.52 20.62a6.55 6.55 0 0 1-3.58 4.68 5.27 5.27 0 0 1-2.3.48c-6 0-15.26-7.9-20.6-10.57L61.6 96a119.11 119.11 0 0 1 5.51 12.91c.57 1.91-1 4.79-2.61 5.8-.11.06-.24.08-.35.14a3.26 3.26 0 0 1-1.39.3c-4.56 0-9.92-8.71-12.63-13.43l-1.23-2.19a83.67 83.67 0 0 1-5.35-11.47 7.5 7.5 0 0 1 2.89-9.2 10.91 10.91 0 0 1 5.68-1.59 13.44 13.44 0 0 1 5 1c3.33 1.33 12.95 7.27 16.4 9.11-.12-.26-.18-.39-.29-.65-.62-1.21-1.41-2.47-2.07-3.92-2.89-6.37-6.18-14.16.41-17.28a4.62 4.62 0 0 1 2-.42m0-6a10.58 10.58 0 0 0-4.52 1c-5.24 2.48-7.85 7.41-7.15 13.53v.25c-1-.51-1.83-.91-2.53-1.19a19.52 19.52 0 0 0-7.21-1.45 16.79 16.79 0 0 0-8.77 2.45A13.42 13.42 0 0 0 38 90.25a87.82 87.82 0 0 0 5.72 12.26l.76 1.32.48.83c4.65 8.13 10.42 16.45 17.83 16.45a9.47 9.47 0 0 0 3.71-.76 7.16 7.16 0 0 0 1.14-.55c3.41-2.07 6.21-7 5.5-11.51a19.6 19.6 0 0 0 8 2.06 11.18 11.18 0 0 0 4.91-1.08A12.5 12.5 0 0 0 93 100v-.6c.2-6.46-1.56-14.65-5-23.06l-.36-.88-.09-.22c-3-7.41-5.09-11.7-7.89-13.86a9.38 9.38 0 0 0-6.24-2.23z" fill="#45413c"></path><path d="M96.9 99.77a10.28 10.28 0 0 1-5-1.09 9 9 0 0 1-4-4.59 8.8 8.8 0 0 1 .59-8.17 7.49 7.49 0 0 1 3.27-2.79 16.32 16.32 0 0 1 3.84-.9c-1.17-.2-2.46-.47-3.87-.85a14.39 14.39 0 0 1-9.38-8.71 14.09 14.09 0 0 1 .52-10.91 19.62 19.62 0 0 1 11.2-10 22.92 22.92 0 0 1 7.77-1.47c5.66 0 9.77 2.59 11 6.91 1 3.7-1 7.1-5.07 8.67l-.43.15c-.66.22-1.39.42-2.13.61 5.75 1.23 13.11 3.08 14.92 9.65 2.54 9.26-1.87 16.77-12.42 21.13l-.94.36a29.4 29.4 0 0 1-9.87 2z" fill="#ffcd21"></path><path d="M101.8 53.26c4 0 7.21 1.59 8.1 4.72.63 2.24-.67 4.07-3.26 5.06l-.32.1c-1.85.62-4.58 1.13-6.23 1.72l-.32.12c-1.32.54-2.24 1.39-2 2.24a2.33 2.33 0 0 0 1.48 1c4.48 1.64 16 1.95 17.88 8.79 2.38 8.67-2.73 14.28-10.67 17.56l-.85.32a26.46 26.46 0 0 1-8.75 1.84 7.35 7.35 0 0 1-3.55-.73 5.93 5.93 0 0 1-2.66-3 5.81 5.81 0 0 1 .35-5.45 4.49 4.49 0 0 1 1.91-1.65c2-.84 6.79-.9 9.22-1.82l.24-.09c1.18-.45 2.46-1.23 2-2.47-.72-2.21-4.64-1.08-11.92-3a11.42 11.42 0 0 1-7.36-6.88c-2.41-6.27 1.92-14.11 10-17a19.79 19.79 0 0 1 6.74-1.29m0-6A25.93 25.93 0 0 0 93 48.91a22.65 22.65 0 0 0-12.9 11.61 17.05 17.05 0 0 0-.59 13.23 17.71 17.71 0 0 0 7.67 9 9.93 9.93 0 0 0-1.26 1.58 12.26 12.26 0 0 0 4.56 17 13.3 13.3 0 0 0 6.42 1.45 33.41 33.41 0 0 0 10.87-2.22l.83-.32h.2c12-5 17.11-14 14.16-24.7-1.41-5.14-5.44-8-9.7-9.66a9.44 9.44 0 0 0 2.41-9.44c-1.58-5.61-6.89-9.1-13.87-9.1z" fill="#45413c"></path><path d="M128 90.37c-3 0-5.42-1.42-6.35-3.82a146.23 146.23 0 0 1-4.93-16.06c-.37-1.42-.8-2.95-1.25-4.52-1.68-5.91-3.27-11.49-2.67-15.24.74-4.67 10.39-8 13.71-8.75a35.65 35.65 0 0 1 8.22-1c10.55 0 17.35 5.29 18.65 14.5 1.42 10-4.95 18.63-16 21.92a27.85 27.85 0 0 1 .39 6c-.26 3.55-4.39 5.89-7.1 6.61a10.78 10.78 0 0 1-2.67.36zm5.9-28.75a3.25 3.25 0 0 0 2-3.41 2 2 0 0 0-2.13-1.8 3.38 3.38 0 0 0-.81.1h-.12z" fill="#ffcd21"></path><path d="M134.7 44c7.65 0 14.45 3.2 15.68 11.92 1.41 10-6 16.85-15.6 19.08l-.73.17c.3 2.93.9 5.5.71 8-.12 1.64-2.72 3.36-4.88 3.93a7.83 7.83 0 0 1-1.91.25c-1.61 0-3-.58-3.55-1.91a142 142 0 0 1-4.82-15.72c-1.62-6.23-4.51-14.51-3.87-18.53.31-2 6.38-5.11 11.45-6.31a32.93 32.93 0 0 1 7.52-.88m-2.13 21a3.7 3.7 0 0 0 .79-.08c4-.91 6-4.22 5.44-7.28a5 5 0 0 0-5.08-4.26 7.06 7.06 0 0 0-1.47.17A5.82 5.82 0 0 0 129.4 55l2.07 9.75a1.85 1.85 0 0 0 1.1.25m2.13-27a38.81 38.81 0 0 0-8.91 1.09c-.6.14-14.77 3.58-16 11.2-.7 4.4 1 10.29 2.76 16.54.45 1.58.87 3.07 1.23 4.44a147.8 147.8 0 0 0 5 16.4c1.37 3.54 4.88 5.73 9.14 5.73a13.54 13.54 0 0 0 3.44-.45c4.24-1.12 9-4.5 9.33-9.28a23.29 23.29 0 0 0-.1-4.2c11-4.22 17.21-13.57 15.68-24.39S146.72 38 134.7 38z" fill="#45413c"></path><path d="M169.89 82.71c-5.61 0-9.75-1.29-12.29-3.83-4.16-4.13-5.71-13-6.18-16.68-.51-3.93-1.6-17.16 5.84-22.7 3.24-2.39 9.27-4.27 15-4.67.71 0 1.41-.07 2.1-.07 7.63 0 12.28 3.17 12.42 8.48a6.83 6.83 0 0 1-.27 2.58c-1.46 4.31-6.73 4.81-11.38 5.25-1.09.11-2.59.25-3.81.46.68 0 1.34-.06 2-.06 6.21 0 7.66 3 7.77 5.46.26 5.48-3.41 7.69-7.11 8.77h.29a28.82 28.82 0 0 0 3.12-.43 32 32 0 0 1 4-.5h.3a6.71 6.71 0 0 1 6.71 6.63c.08 3.73-1.78 10.14-15.23 11.2-1.17.06-2.26.11-3.28.11z" fill="#ffcd21"></path><path d="M174.38 37.76c4.67 0 9.31 1.29 9.42 5.55a5.42 5.42 0 0 1-.1 1.5c-1.61 5-16.15 1.56-17.07 6.45a8.5 8.5 0 0 0 0 2 9 9 0 0 0 .28 1.66c1.22-.12 1.83-.17 3.05-.27s2.33-.16 3.38-.16c2.69 0 4.68.49 4.78 2.6.27 5.74-6 6-10.64 6.9 0 .31 0 .47.07.78.15 1.78 1 3.8 3.59 4a6.25 6.25 0 0 0 .68 0c.88 0 2.21-.06 2.68-.1 2.48-.17 4.69-.82 7-.92h.17a3.71 3.71 0 0 1 3.71 3.7c.14 6.22-7.47 7.74-12.47 8.13-1 .09-2 .13-3 .13-4.7 0-8.22-1-10.18-2.95-2.77-2.77-4.54-9-5.32-15-1-7.52-.06-16.39 4.66-19.9 2.42-1.79 7.66-3.68 13.44-4.08.62 0 1.25-.07 1.89-.07m0-6c-.75 0-1.53 0-2.31.08-6.37.44-12.88 2.5-16.59 5.25-8.77 6.52-7.6 21.16-7 25.5.64 4.9 2.41 13.8 7 18.42 3.13 3.12 8 4.7 14.41 4.7 1.1 0 2.26 0 3.45-.14 16.51-1.3 18.09-10.41 18-14.26a9.71 9.71 0 0 0-8.1-9.43 11.62 11.62 0 0 0 .84-5.09 8.85 8.85 0 0 0-1.2-4c2.85-1 5.36-2.66 6.48-6a9.8 9.8 0 0 0 .44-3.65c-.15-5.51-4.28-11.4-15.42-11.4z" fill="#45413c"></path><path d="M205.08 81.64h-1c-10.15-.51-21.09-8.88-21.4-23.38a23.18 23.18 0 0 1 6.38-16.91 22.77 22.77 0 0 1 16.7-6.61h1c3.93.13 9.91 1.44 13.84 4.7 3.13 2.6 4.5 5.4 4.19 8.58-.44 4.37-3.63 7.19-8.14 7.19a9.74 9.74 0 0 1-1.06-.05 13.86 13.86 0 0 1-3.8-1c-.53-.21-1.05-.44-1.58-.68a11 11 0 0 0-3.74-1.16h-.57c-4.47 0-5.46 3.23-5.52 5.94a5.43 5.43 0 0 0 4.79 5.55h.82a9.53 9.53 0 0 0 4.88-1.55 11.77 11.77 0 0 1 5.84-1.85h.89a10.26 10.26 0 0 1 1.82.3 6.57 6.57 0 0 1 4.78 7.09 11.5 11.5 0 0 1-.63 2.79c-2.57 7.59-11.41 11.05-18.49 11.05z" fill="#ffcd21"></path><path d="M205.75 37.71h.89c3.7.13 8.83 1.37 12 4 2.3 1.91 3.33 3.77 3.11 6-.27 2.75-2.08 4.49-5.15 4.49a7.21 7.21 0 0 1-.79 0 10.59 10.59 0 0 1-3-.79c-1.93-.75-3.79-1.9-6.24-2h-.74c-6.56 0-8.44 5-8.51 8.89a8.36 8.36 0 0 0 7.51 8.58 10.29 10.29 0 0 0 1.09 0c5.1 0 7.08-3.4 10.72-3.4h.6a7.71 7.71 0 0 1 1.25.19 3.57 3.57 0 0 1 2.66 3.9 8.36 8.36 0 0 1-.46 2c-2.13 6.17-9.82 9-15.65 9h-.87c-11.18-.56-18.34-10.28-18.55-20.45-.24-10.93 7.24-20.45 20.08-20.45m0-6c-7.51 0-14 2.6-18.84 7.51a26.14 26.14 0 0 0-7.24 19.07c.3 14.32 10.73 25.63 24.25 26.32h1.17c8.08 0 18.17-4.07 21.29-13a14.13 14.13 0 0 0 .79-3.45 9.62 9.62 0 0 0-6.87-10.26 3.74 3.74 0 0 0-.45-.12 10.51 10.51 0 0 0 7.9-9.49c.42-4.19-1.35-8-5.25-11.19-4.52-3.74-11.05-5.24-15.66-5.39h-1.09zm.3 29.17h-.55a2.48 2.48 0 0 1-2.06-2.5c.06-3 1.41-3 2.5-3h.43a8.44 8.44 0 0 1 2.68.91c.54.24 1.1.48 1.72.73a20 20 0 0 0 2.85.9 18.62 18.62 0 0 0-4.12 1.78 6.69 6.69 0 0 1-3.45 1.18z" fill="#45413c"></path><path d="M238.62 86.45a12.2 12.2 0 0 1-2.31-.22c-1.83-.34-6.73-2-7.46-5.68-.39-1.94.05-4.64.53-7.49.11-.68.22-1.35.32-2 .39-2.69.89-5.35 1.28-7.36.46-2.4 1-4.8 1.38-6.87-1-.23-2.11-.48-3-.7a13.21 13.21 0 0 1-4.54-2.13c-1.63-1.2-3.19-4.18-2.66-9s3.66-7.74 8-7.74a10.17 10.17 0 0 1 1.34.09c3.48.49 5.28.78 8.75 1.38 5.68 1 10.54 2.11 12.87 2.65l1 .24c4.84 1.09 8 2.92 9.67 5.59a9.15 9.15 0 0 1 1 7.2c-.88 3.72-3.92 5.6-9 5.6-1.59 0-3.23-.16-4.81-.31h-.18c-.55 3.1-1.12 7-1.65 10.44-.45 3-.91 6-1.46 8.86-.1.49-.22 1-.33 1.51s-.21.9-.29 1.34l-.19.94-.69.66a10.84 10.84 0 0 1-7.57 3z" fill="#ffcd21"></path><path d="M230.18 40.33a7.22 7.22 0 0 1 .92.06c3.47.49 5.2.77 8.66 1.37 6.6 1.14 12 2.46 13.75 2.86 5.54 1.25 9.67 3.71 8.38 9.17-.63 2.65-3.13 3.29-6.14 3.29-2.38 0-5.09-.41-7.43-.53-.07.33-.1.49-.16.82-.65 3.34-1.35 8-2 12.39-.44 2.89-.9 5.91-1.45 8.72-.18.94-.43 1.92-.62 2.86a7.84 7.84 0 0 1-5.47 2.11 8.93 8.93 0 0 1-1.75-.17c-2-.37-4.78-1.84-5.08-3.32-.36-1.81.45-5.56.87-8.45.36-2.42.8-4.85 1.26-7.24.7-3.6 1.46-7.2 2-9.72-.71-.18-3.84-.82-5.76-1.32a9.94 9.94 0 0 1-3.54-1.63c-.75-.55-1.85-2.58-1.45-6.21.37-3.4 2.45-5.06 5-5.06m0-6c-5.9 0-10.32 4.18-11 10.41-.56 5.13.89 9.5 3.87 11.69a16 16 0 0 0 5.59 2.57l.2.05c-.26 1.31-.54 2.67-.8 4-.39 2-.9 4.75-1.3 7.5-.09.61-.2 1.27-.31 1.93-.52 3.13-1 6.09-.51 8.57 1 5.08 6.89 7.48 9.85 8a15.46 15.46 0 0 0 2.86.27 13.9 13.9 0 0 0 9.61-3.76l1.39-1.32.36-1.89c.08-.41.18-.83.27-1.25s.25-1.07.35-1.6c.57-2.91 1-5.91 1.49-9 .38-2.5.78-5.2 1.18-7.67.82.06 1.65.1 2.48.1 8.79 0 11.27-5 12-7.91a12.08 12.08 0 0 0-1.34-9.48c-2.11-3.38-5.89-5.65-11.55-6.92l-1-.23c-2.36-.55-7.28-1.69-13.06-2.7-3.5-.6-5.32-.89-8.84-1.39a13.12 13.12 0 0 0-1.76-.12z" fill="#45413c"></path><path d="M271.42 94.6h-.64a47.37 47.37 0 0 1-7.29-1.94l-.56-.17c-4.35-1.34-9.76-3-8.06-9.88.31-1.24 1.13-4.54 4.44-5.26q.56-.12.84-.21c.71-2.37 1.38-5 2.09-7.78.32-1.25.65-2.55 1-3.87.18-.69.41-1.43.64-2.19s.44-1.4.62-2.09a13 13 0 0 0 .43-2.25l-.29-.2c-2.11-1.41-2.92-4-2.17-7.07a8.59 8.59 0 0 1 2.34-4.26 6.68 6.68 0 0 1 4.65-1.51 25.29 25.29 0 0 1 7 1.35l1.55.48c3.8 1.21 11.69 3.72 10 10.61v.09l-.23.71a6.6 6.6 0 0 1-5.91 5c-.29.85-.57 1.82-.84 2.71-.13.45-.48 1.62-.48 1.62l-1.6 5.24c-.46 1.53-1 3.12-1.55 4.65-.45 1.3-.88 2.53-1.24 3.67 1.75 1.84 2.75 3.64 1.59 7.3-1.14 3.33-3.42 5.25-6.33 5.25z" fill="#ffcd21"></path><path d="M269.46 48.89a22.44 22.44 0 0 1 6.1 1.21l1.53.48c6.19 2 8.77 3.83 8 7l-.2.62c-.8 2.5-2.31 3-4.39 3a1.16 1.16 0 0 0-1.08.77c-.59 1.48-1.18 3.62-1.68 5.27l-1.74 5.6c-.88 2.9-2.13 6.12-3 8.86a1.65 1.65 0 0 0 .35 1.88c1.76 1.73 2.21 2.34 1.42 4.84-.54 1.7-1.59 3.18-3.4 3.18h-.35a56.59 56.59 0 0 1-7.25-2c-5.15-1.59-7-2.47-6-6.29.33-1.33.81-2.75 2.16-3 1.62-.35 2.61-.77 2.81-1.42 1.15-3.7 2.17-8 3.38-12.6.35-1.33.88-2.85 1.26-4.29a11.74 11.74 0 0 0 .52-3.57 2.94 2.94 0 0 0-1.61-2.14c-1.13-.75-1.33-2.22-.93-3.85a5.64 5.64 0 0 1 1.38-2.7 4 4 0 0 1 2.7-.79m0-6a9.67 9.67 0 0 0-6.68 2.3 11.54 11.54 0 0 0-3.23 5.75c-.9 3.65-.11 7 2.11 9.21q0 .12-.06.27c-.16.6-.37 1.27-.59 2s-.47 1.54-.68 2.31c-.34 1.32-.67 2.62-1 3.88-.54 2.13-1.06 4.18-1.59 6.07-2.89 1-4.83 3.39-5.78 7.21-1.26 5.1.67 8.17 2.51 9.85s4.48 2.66 7.58 3.62l.54.16a47.05 47.05 0 0 0 7.89 2.06h.94c4.24 0 7.65-2.75 9.12-7.36 1.32-4.16.45-6.79-1.08-8.86l.7-2c.55-1.57 1.11-3.18 1.59-4.76l1.7-5.58c.13-.42.26-.86.39-1.31l.3-1a9.61 9.61 0 0 0 6.43-6.64l.2-.62.06-.18.05-.19a9.65 9.65 0 0 0-3.32-10c-1.91-1.61-4.5-2.86-8.65-4.18l-1.56-.49a26.53 26.53 0 0 0-7.89-1.48z" fill="#45413c"></path><path d="M304.82 108.36a9.49 9.49 0 0 1-4.3-1c-4.74-2.44-6.25-9.59-7.21-16.72a56.22 56.22 0 0 1-2.81 5.51c-1.49 2.46-4.55 3.33-6.72 3.33A7.52 7.52 0 0 1 281 99a4.07 4.07 0 0 1-.69-.37c-6.22-3.46-3.58-14.27-.58-23.29l.79-2.38a87.32 87.32 0 0 1 5.12-12.05 9.75 9.75 0 0 1 8.79-5.64 9.43 9.43 0 0 1 3.44.65c4.2 1.7 7.25 5.2 8.82 10.15a95.4 95.4 0 0 1 2 9.57c2.28-4.44 5.5-8.85 10.51-8.85a9.58 9.58 0 0 1 4.45 1.17 7.49 7.49 0 0 1 4.09 6.42c.23 2.9-1.51 7.1-4.76 13.73l-.52 1.06c-3.8 7.77-8.42 14.09-13 17.81l-.13.1-.13.09a8.06 8.06 0 0 1-4.38 1.19z" fill="#ffcd21"></path><path d="M294.43 58.23a6.15 6.15 0 0 1 2.32.44c3.39 1.36 5.79 4.2 7.09 8.27 1.12 3.55 2.89 15.16 3.74 19.14.11-.27.17-.4.28-.66.49-1.27.91-2.72 1.55-4.18 2.33-5.32 5.2-11.49 9.82-11.49a6.53 6.53 0 0 1 3.06.83 4.53 4.53 0 0 1 2.48 3.86c.3 2.45-2.4 8.11-4.45 12.31l-.52 1.06c-3.41 7-7.71 13.16-12.2 16.8a5.15 5.15 0 0 1-2.78.75 6.54 6.54 0 0 1-2.93-.69c-5.67-2.92-5.52-18.17-7.12-25l-.93 2.25a118.49 118.49 0 0 1-5.91 12.71 5 5 0 0 1-4.15 1.88 4.4 4.4 0 0 1-1.67-.29c-.11 0-.2-.14-.32-.19-4.54-2.5-1.12-14 .79-19.74.31-.95.47-1.42.79-2.37a84.54 84.54 0 0 1 4.95-11.66 6.73 6.73 0 0 1 6.11-4m0-6A12.7 12.7 0 0 0 283 59.53 90 90 0 0 0 277.67 72l-.47 1.42-.32.95c-2.15 6.49-7.19 21.64 1.88 26.81a6.79 6.79 0 0 0 1.13.59 10.55 10.55 0 0 0 3.89.71 11.37 11.37 0 0 0 8.1-3.23c1.29 4.73 3.38 8.78 7.27 10.77a12.44 12.44 0 0 0 5.67 1.36 11.09 11.09 0 0 0 6-1.71l.27-.17.25-.21c6.3-5.11 11-13 13.81-18.82l.52-1.07c3.51-7.16 5.29-11.58 5.06-15.15a10.59 10.59 0 0 0-5.7-9 12.51 12.51 0 0 0-5.84-1.51 12 12 0 0 0-8.94 4.2c-.26-1.13-.5-2.08-.74-2.83-1.85-5.82-5.5-10-10.56-12a12.29 12.29 0 0 0-4.56-.87z" fill="#45413c"></path><path d="M339.49 127.3a25.46 25.46 0 0 1-14.07-4.76 21.85 21.85 0 0 1-9.85-15.9 27.54 27.54 0 0 1 2.89-15 22.28 22.28 0 0 1 19.85-12.54 24.08 24.08 0 0 1 13.39 4.28c5.82 3.9 9.92 9.47 11 14.89a11.34 11.34 0 0 1-1.56 8.74 5.14 5.14 0 0 1-4.38 2.29 6.86 6.86 0 0 1-1.81-.25 8.24 8.24 0 0 1 .69 5.78 16.89 16.89 0 0 1-2.38 5.14l-.16.24a15.87 15.87 0 0 1-13.61 7.09zm1.13-30.88c-2.17 0-4.4 1.67-6 4.47-1.16 2.07-2 4.82-.08 7.08a6.61 6.61 0 0 1 1.09-4.81 6.28 6.28 0 0 1 5.54-3.25 11.24 11.24 0 0 1 5.34 1.66c-.07-.18-.13-.35-.2-.51a6.36 6.36 0 0 0-2.85-3.68 5.13 5.13 0 0 0-2.84-.96z" fill="#ffcd21"></path><path d="M338.31 82.06A20.94 20.94 0 0 1 350 85.83c8.28 5.55 12.09 14.35 8.61 19.44a2.2 2.2 0 0 1-1.91 1 8.15 8.15 0 0 1-4.23-1.83 8.36 8.36 0 0 1-2.54-2.64c-1.26-2.19-1.06-4.38-4.8-6.9a8.11 8.11 0 0 0-4.54-1.47c-3.4 0-6.56 2.39-8.59 6-2.74 4.89-1.92 9.55 2.41 12.37a7.76 7.76 0 0 0 4.2 1.42 3.56 3.56 0 0 0 3.09-1.4l.19-.3c-1-.73-1.49-1.09-2.49-1.81-2.95-2.09-2-3.74-1.2-5a3.31 3.31 0 0 1 3-1.79c1.94 0 4.26 1.37 6.42 2.92a32 32 0 0 1 2.57 2c2.43 2.16 3 4.24 2.5 6.26a13.66 13.66 0 0 1-1.93 4.14l-.17.24a12.93 12.93 0 0 1-11.1 5.83 22.55 22.55 0 0 1-12.37-4.23c-11.26-7.72-9.6-19.94-6-27.12a19.33 19.33 0 0 1 17.17-10.89m0-6a25.29 25.29 0 0 0-22.53 14.19c-5.47 10.84-5.14 25.8 8 34.77a28.51 28.51 0 0 0 15.76 5.28 19 19 0 0 0 16.05-8.43l.09-.14.07-.1a19.83 19.83 0 0 0 2.82-6.14 11.29 11.29 0 0 0 .29-3.48 8.12 8.12 0 0 0 4.78-3.35 14.3 14.3 0 0 0 2-11c-1.19-6.19-5.76-12.47-12.24-16.81a27.11 27.11 0 0 0-15.06-4.79z" fill="#45413c"></path><path d="M41.79 128.2c-2.54 0-4-2.12-4.48-2.81-.67-1-2.24-3.27-.94-5.79a8.42 8.42 0 0 0 .7-1.61c-1.35-2.21-3-4.59-4.66-7.11l-2.19-3.26c-.38-.58-.77-1.22-1.17-1.88s-.76-1.27-1.16-1.87a8.12 8.12 0 0 0-1.73-2.12 2.86 2.86 0 0 0-.85.22 4.38 4.38 0 0 1-1.47.26 5.39 5.39 0 0 1-4.33-2.64 7.41 7.41 0 0 1-1.43-4c0-3.23 3.53-6.21 7-8.7l1.38-1c4.1-2.9 6.67-4.08 8.88-4.08a5.1 5.1 0 0 1 4.36 2.38l.4.68c1.86 3.15.75 5.6-.56 7.42.5.93 1.19 2 1.81 3.06l.77 1.23 2.88 4.81c.81 1.33 1.62 2.78 2.4 4.19s1.45 2.63 2.13 3.76a12.75 12.75 0 0 1 1.7-.15c2.24 0 3.41 1.21 4.49 3 1.64 2.77 1.49 5.51-.4 7.5a53.64 53.64 0 0 1-5.94 4.61l-.6.43c-2.86 2.11-4.9 3.47-6.99 3.47z" fill="#ffcd21"></path><path d="M35.31 83.79A3.09 3.09 0 0 1 38 85.3c.14.22.2.34.33.56 1.32 2.23.67 3.78-.66 5.53a1.29 1.29 0 0 0-.16 1.39c.7 1.41 1.9 3.25 2.79 4.71l3 4.94c1.56 2.56 3.12 5.63 4.59 8a1.54 1.54 0 0 0 1.33.92h.28a11.66 11.66 0 0 1 1.74-.18c1.18 0 1.83.46 2.77 2s1.35 3.55-.13 5.11a65.24 65.24 0 0 1-6.26 4.8c-2.66 1.91-4.41 3-5.84 3-1 0-1.91-.6-2.83-2-.77-1.11-1.5-2.41-.81-3.73.82-1.58 1.17-2.68.82-3.26-2-3.26-4.48-6.84-7.08-10.75-.75-1.12-1.52-2.53-2.34-3.75a10.51 10.51 0 0 0-2.29-2.68 1.94 1.94 0 0 0-1.12-.34 4.53 4.53 0 0 0-1.54.35 2.24 2.24 0 0 1-.79.14 3.48 3.48 0 0 1-2.68-1.77 5.65 5.65 0 0 1-1.08-2.87c0-2.35 3.36-5.11 6.16-7.11l1.37-1c3.43-2.42 5.91-3.71 7.73-3.71m0-4c-2.66 0-5.57 1.29-10 4.45l-1.39 1C20 88 16.06 91.39 16.05 95.56a9.6 9.6 0 0 0 1.79 5.16 7.27 7.27 0 0 0 6 3.51 6.19 6.19 0 0 0 1.71-.24c.19.24.42.56.7 1s.75 1.18 1.12 1.79.8 1.33 1.22 2c.74 1.12 1.48 2.2 2.19 3.27 1.48 2.17 2.88 4.25 4.09 6.19-.06.14-.15.3-.24.49-1.86 3.58.34 6.79 1.06 7.84 1.68 2.44 3.75 3.68 6.13 3.68 2.68 0 5.08-1.58 8.18-3.81l.61-.43a52.45 52.45 0 0 0 6.21-4.85c2.52-2.65 2.77-6.35.67-9.9-1.1-1.87-2.81-4-6.21-4h-.63c-.47-.81-.95-1.69-1.46-2.6-.78-1.42-1.6-2.9-2.43-4.26l-2-3.26-1-1.67-.76-1.2c-.39-.62-.81-1.29-1.17-1.91a8 8 0 0 0-.07-8.53l-.15-.25-.18-.31-.07-.11-.07-.11a7.12 7.12 0 0 0-6-3.26z" fill="#45413c"></path><path d="M62.76 114.56c-4.16 0-8.72-4.59-14.36-14.44L47.17 98a83 83 0 0 1-5.48-11.73 9.45 9.45 0 0 1 3.72-11.67 12.84 12.84 0 0 1 6.71-1.88 15.51 15.51 0 0 1 5.72 1.17 117.71 117.71 0 0 1 10.9 5.93c-2.67-6-6-14.85 2-18.62a6.56 6.56 0 0 1 2.81-.62 5.45 5.45 0 0 1 3.7 1.32c2.09 1.54 4.06 5.69 6.72 12.27l.45 1.1c3.19 7.91 4.85 15.52 4.66 21.44v.2a8.55 8.55 0 0 1-4.7 6.21 7.26 7.26 0 0 1-3.17.68c-4.74 0-10.57-3.84-15.72-7.23l-.21-.14a84.11 84.11 0 0 1 3.8 9.32c.88 2.88-1.12 6.65-3.48 8.08a2.67 2.67 0 0 1-.55.25 5.41 5.41 0 0 1-2.29.48z" fill="#ffcd21"></path><path d="M73.5 62.58a3.41 3.41 0 0 1 2.42.87c2 1.32 4.39 7.13 6.15 11.47.18.44.27.66.44 1.1 2.92 7.21 4.71 14.65 4.52 20.62a6.53 6.53 0 0 1-3.58 4.68 5.27 5.27 0 0 1-2.3.48c-6 0-15.26-7.89-20.6-10.57l1.05 2.19a119 119 0 0 1 5.51 12.9c.57 1.91-1 4.8-2.61 5.8-.11.07-.24.08-.35.14a3.26 3.26 0 0 1-1.39.3c-4.56 0-9.92-8.7-12.63-13.43L48.9 97a83.67 83.67 0 0 1-5.35-11.47 7.48 7.48 0 0 1 2.89-9.19 10.83 10.83 0 0 1 5.68-1.6 13.46 13.46 0 0 1 5 1c3.33 1.33 12.95 7.26 16.4 9.1-.12-.25-.18-.38-.29-.64-.62-1.21-1.41-2.47-2.07-3.93-2.91-6.36-6.16-14.15.39-17.27a4.63 4.63 0 0 1 2-.43m0-4a8.62 8.62 0 0 0-3.66.81c-4.49 2.12-6.63 6.21-6 11.49a22.71 22.71 0 0 0 1 4.36A61.51 61.51 0 0 0 58.58 72a17.37 17.37 0 0 0-6.46-1.31 14.79 14.79 0 0 0-7.74 2.17A11.43 11.43 0 0 0 39.83 87a85.22 85.22 0 0 0 5.6 12l.42.72.81 1.43c6.12 10.68 11.08 15.44 16.1 15.44a7.42 7.42 0 0 0 3-.62 3.88 3.88 0 0 0 .84-.4c3-1.82 5.53-6.52 4.37-10.37-.31-1-.75-2.23-1.27-3.53 3.87 2.31 7.85 4.16 11.48 4.16a9.13 9.13 0 0 0 4-.88A10.46 10.46 0 0 0 91 97.17v-.4c.2-6.19-1.51-14.09-4.81-22.25l-.44-1.1c-2.82-7-4.86-11.2-7.31-13.06a7.41 7.41 0 0 0-5-1.78z" fill="#45413c"></path><path d="M96.9 96.23a9.34 9.34 0 0 1-4.57-1 7.92 7.92 0 0 1-3.54-4 7.79 7.79 0 0 1 .52-7.29 6.42 6.42 0 0 1 2.79-2.38 21.68 21.68 0 0 1 4.92-1 24.16 24.16 0 0 0 4.37-.83l.4-.15c-.59-.11-1.39-.2-2.08-.27A48.61 48.61 0 0 1 92 77.87a13.4 13.4 0 0 1-8.71-8.1 13.11 13.11 0 0 1 .5-10.14 18.62 18.62 0 0 1 10.63-9.51 21.93 21.93 0 0 1 7.43-1.4c5.19 0 8.93 2.31 10 6.18.91 3.21-.81 6.07-4.46 7.46l-.41.14c-1 .31-2.1.6-3.21.87s-2 .51-2.79.76c.89.25 2 .48 3.12.72 5.61 1.18 13.3 2.8 15 9.12 2.39 8.71-1.81 15.79-11.83 19.94l-.91.35a28.39 28.39 0 0 1-9.46 1.97z" fill="#ffcd21"></path><path d="M101.8 50.72c4 0 7.21 1.58 8.1 4.72.63 2.23-.67 4.07-3.26 5.05l-.32.11c-1.85.61-4.58 1.12-6.23 1.72l-.32.11c-1.32.54-2.24 1.39-2 2.24a2.29 2.29 0 0 0 1.48 1c4.48 1.64 16 2 17.88 8.79 2.38 8.67-2.73 14.28-10.67 17.57l-.85.32a26.72 26.72 0 0 1-8.75 1.84 7.46 7.46 0 0 1-3.59-.74 6 6 0 0 1-2.66-3A5.81 5.81 0 0 1 91 85a4.49 4.49 0 0 1 1.91-1.65c2-.84 6.79-.9 9.22-1.82l.24-.09c1.18-.45 2.46-1.23 2-2.47-.72-2.21-4.64-1.08-11.92-3a11.41 11.41 0 0 1-7.36-6.89c-2.41-6.26 1.92-14.11 10-17a19.77 19.77 0 0 1 6.74-1.28m0-4a23.87 23.87 0 0 0-8.11 1.52 20.65 20.65 0 0 0-11.8 10.48 15 15 0 0 0-.54 11.68 15.39 15.39 0 0 0 9.8 9.25 8.52 8.52 0 0 0-3.57 3.11 9.75 9.75 0 0 0-.68 9.07A10 10 0 0 0 91.42 97a11.3 11.3 0 0 0 5.48 1.22 31.34 31.34 0 0 0 10.16-2.1l.84-.32h.13c10.92-4.52 15.65-12.65 13-22.32-1.58-5.76-7.09-8.18-12.18-9.54 4-1.88 6-5.62 4.9-9.55-1.35-4.78-5.82-7.63-12-7.63z" fill="#45413c"></path><path d="M128 86.83c-2.61 0-4.64-1.19-5.42-3.19a145.52 145.52 0 0 1-4.89-15.94c-.37-1.44-.81-3-1.26-4.55-1.58-5.55-3.21-11.28-2.65-14.81.61-3.78 9.16-7 13-7.94a34.75 34.75 0 0 1 8-1c10 0 16.43 5 17.66 13.64 1.4 9.91-4.9 18.08-16.11 21.06 0 .27.08.54.11.81a26.92 26.92 0 0 1 .39 5.86c-.22 3-4 5.1-6.36 5.71a9.22 9.22 0 0 1-2.47.35zm5.16-26.43c2.85-.75 4-3.07 3.7-4.91a3 3 0 0 0-3.11-2.63 5.43 5.43 0 0 0-1 .12 6.61 6.61 0 0 0-1.06.37z" fill="#ffcd21"></path><path d="M134.7 41.42c7.65 0 14.45 3.21 15.68 11.92 1.41 10-6 16.85-15.6 19.08l-.73.17c.3 2.93.9 5.5.71 8-.12 1.64-2.72 3.36-4.88 3.93a7.38 7.38 0 0 1-1.91.26c-1.61 0-3-.59-3.55-1.91a142.87 142.87 0 0 1-4.82-15.73c-1.6-6.14-4.51-14.46-3.87-18.48.31-2 6.38-5.11 11.45-6.31a32.93 32.93 0 0 1 7.52-.93m-2.13 21.06a3.74 3.74 0 0 0 .79-.07c4-.92 6-4.23 5.44-7.28a5 5 0 0 0-5.08-4.27 7.06 7.06 0 0 0-1.47.17 5.75 5.75 0 0 0-2.85 1.46l2.07 9.74a1.85 1.85 0 0 0 1.1.25m2.13-25.06a36.49 36.49 0 0 0-8.45 1c-.13 0-13.46 3.26-14.47 9.57-.64 4 1 9.65 2.7 15.67.45 1.59.88 3.1 1.24 4.5a148.13 148.13 0 0 0 5 16.17c1.09 2.79 3.81 4.46 7.28 4.46a11.8 11.8 0 0 0 2.93-.39c2.57-.68 7.52-3.12 7.85-7.5a25.84 25.84 0 0 0-.28-5.39c11-3.61 17.32-12.48 15.87-22.77-1.36-9.61-8.7-15.36-19.64-15.36zm-.19 19.86-.16-.75-.35-1.65a1 1 0 0 1 .86 1 1.9 1.9 0 0 1-.35 1.44z" fill="#45413c"></path><path d="M169.89 79.16c-5.34 0-9.24-1.19-11.59-3.53-3.93-3.92-5.43-12.57-5.89-16.11-1-7.8-.12-17.62 5.44-21.76 2.58-1.91 8.06-4 14.5-4.48.68 0 1.37-.07 2-.07 7.13 0 11.29 2.74 11.42 7.5a6.09 6.09 0 0 1-.21 2.23c-1.25 3.71-6.18 4.18-10.53 4.59-2 .19-6.28.59-6.46 1.55a5.44 5.44 0 0 0 0 1.11l1.2-.1c1.25-.09 2.44-.16 3.54-.16 4.35 0 6.63 1.51 6.77 4.5.32 6.72-6.07 7.88-10.37 8.62a1.55 1.55 0 0 0 1.55 1.16h.53c.8 0 2.06-.06 2.54-.09a30 30 0 0 0 3.22-.44 29.1 29.1 0 0 1 3.82-.48h.26a5.73 5.73 0 0 1 5.71 5.65C187.42 72.23 185.66 78 173 79a27.7 27.7 0 0 1-3.11.16z" fill="#ffcd21"></path><path d="M174.38 35.21c4.67 0 9.31 1.29 9.42 5.56a5.44 5.44 0 0 1-.1 1.5c-1.61 5-16.15 1.55-17.07 6.44a8.57 8.57 0 0 0 0 2 9.06 9.06 0 0 0 .28 1.65l3.05-.27c1.19-.08 2.33-.15 3.38-.15 2.69 0 4.68.49 4.78 2.6.27 5.73-6 6-10.64 6.89 0 .31 0 .47.07.78.15 1.79 1 3.8 3.59 4a6.25 6.25 0 0 0 .68 0c.88 0 2.21-.06 2.68-.09 2.48-.17 4.69-.83 7-.93h.17a3.72 3.72 0 0 1 3.71 3.7c.14 6.22-7.47 7.74-12.47 8.14-1 .08-2 .12-3 .12-4.7 0-8.22-1-10.18-3-2.77-2.76-4.54-9-5.32-14.95-1-7.52-.06-16.39 4.66-19.9 2.42-1.79 7.66-3.68 13.44-4.08.62-.05 1.25-.07 1.89-.07m0-4c-.71 0-1.44 0-2.17.08-5.92.41-12.17 2.36-15.54 4.86-2 1.49-8.34 7.57-6.24 23.63.6 4.65 2.25 13.07 6.46 17.26 2.74 2.73 7.12 4.12 13 4.12 1.05 0 2.16 0 3.29-.14 14.28-1.12 16.25-8.13 16.16-12.21a7.71 7.71 0 0 0-7.71-7.61h-.34a18.39 18.39 0 0 0-1.86.16 8.83 8.83 0 0 0 2.65-7 6 6 0 0 0-3.17-5.24c3.71-.58 7.32-1.81 8.56-5.5a7.84 7.84 0 0 0 .33-2.94c-.06-2.22-1.2-9.45-13.42-9.45z" fill="#45413c"></path><path d="M205.08 78.09h-1c-9.69-.49-20.16-8.51-20.45-22.4a22.16 22.16 0 0 1 6.1-16.19 21.75 21.75 0 0 1 16-6.31h.95c3.77.12 9.5 1.37 13.25 4.47 2.85 2.37 4.1 4.89 3.82 7.71-.38 3.88-3.12 6.29-7.14 6.29h-1a12.67 12.67 0 0 1-3.53-.92c-.51-.2-1-.43-1.54-.66a11.42 11.42 0 0 0-4.08-1.24h-.63c-5.56 0-6.47 4.34-6.52 6.93a6.41 6.41 0 0 0 5.7 6.55h.91a10.49 10.49 0 0 0 5.36-1.67 10.82 10.82 0 0 1 5.36-1.73 7.09 7.09 0 0 1 .79 0 10.08 10.08 0 0 1 1.64.26 5.62 5.62 0 0 1 4.07 6 10.49 10.49 0 0 1-.58 2.54c-2.28 6.8-10.56 10.37-17.48 10.37z" fill="#ffcd21"></path><path d="M205.75 35.16h.89c3.7.12 8.83 1.37 12 4 2.3 1.91 3.33 3.77 3.11 6-.27 2.75-2.08 4.49-5.15 4.49h-.79a11.31 11.31 0 0 1-3-.79c-1.93-.76-3.79-1.9-6.24-2h-.74c-6.56 0-8.44 5-8.51 8.89a8.37 8.37 0 0 0 7.51 8.59h1.09c5.1 0 7.08-3.41 10.72-3.41h.6a9 9 0 0 1 1.25.19A3.57 3.57 0 0 1 221.2 65a8.36 8.36 0 0 1-.46 2c-2.13 6.17-9.82 9-15.65 9h-.87c-11.22-.5-18.34-10.22-18.55-20.39-.24-10.93 7.24-20.45 20.08-20.45m0-4a23.69 23.69 0 0 0-17.41 6.92 24.11 24.11 0 0 0-6.67 17.62C182 69 191.56 79.43 204 80.06h1.07a25.05 25.05 0 0 0 11-2.64 16.28 16.28 0 0 0 8.38-9 12.21 12.21 0 0 0 .68-3 7.55 7.55 0 0 0-5.47-8.14 11.57 11.57 0 0 0-2-.34h-1a12.77 12.77 0 0 0-6.32 2A8.62 8.62 0 0 1 206 60.3h-.73a4.42 4.42 0 0 1-3.88-4.53c.1-4.94 3.39-5 4.5-5h.52a10 10 0 0 1 3.38 1.07c.52.23 1.06.47 1.63.69a14.63 14.63 0 0 0 4.07 1.05 11.3 11.3 0 0 0 1.15 0c5.06 0 8.64-3.17 9.13-8.09.35-3.53-1.13-6.62-4.54-9.45-4.12-3.42-10.17-4.79-14.45-4.93h-1z" fill="#45413c"></path><path d="M238.62 82.9a11.87 11.87 0 0 1-2.12-.2c-1.93-.36-6.1-2-6.67-4.89-.36-1.77.08-4.37.53-7.13.12-.69.23-1.37.33-2 .39-2.67.88-5.32 1.27-7.32.48-2.52 1-5 1.44-7.17 0-.22.09-.44.14-.66-1.24-.27-2.77-.61-3.91-.9a12.06 12.06 0 0 1-4.22-2c-1.34-1-2.74-3.68-2.26-8 .46-4.16 3.21-6.85 7-6.85a8.28 8.28 0 0 1 1.2.09c3.47.49 5.27.77 8.72 1.37 5.66 1 10.49 2.1 12.82 2.64l1 .24c4.57 1 7.52 2.71 9 5.14a8.19 8.19 0 0 1 .84 6.44c-1.14 4.83-6.36 4.83-8.07 4.83-1.54 0-3.16-.15-4.72-.3l-1.09-.1c-.6 3.25-1.24 7.55-1.82 11.38-.45 3-.9 6-1.46 8.81-.09.48-.2 1-.32 1.48s-.21.92-.29 1.37l-.13.63-.46.44a9.84 9.84 0 0 1-6.75 2.66z" fill="#ffcd21"></path><path d="M230.18 37.78a5.79 5.79 0 0 1 .92.07c3.47.49 5.2.76 8.66 1.36 6.6 1.14 12 2.46 13.75 2.86 5.54 1.25 9.67 3.72 8.38 9.17-.63 2.65-3.13 3.29-6.13 3.29-2.39 0-5.1-.4-7.44-.53-.07.33-.1.49-.16.82-.65 3.34-1.35 8-2 12.39-.44 2.9-.9 5.91-1.45 8.72-.18.94-.43 1.92-.62 2.86a7.83 7.83 0 0 1-5.46 2.11 9.76 9.76 0 0 1-1.76-.16c-2-.38-4.78-1.85-5.08-3.33-.36-1.81.45-5.55.87-8.45.36-2.42.8-4.85 1.26-7.24.7-3.6 1.46-7.2 2-9.72-.71-.18-3.84-.82-5.76-1.32a9.94 9.94 0 0 1-3.54-1.63c-.75-.55-1.85-2.58-1.45-6.2.37-3.41 2.45-5.07 5-5.07m0-4c-4.83 0-8.45 3.47-9 8.63s1.21 8.5 3.06 9.87a14.21 14.21 0 0 0 4.91 2.28l2.05.49c-.38 1.85-.79 3.87-1.19 5.92s-.89 4.7-1.28 7.41c-.09.63-.21 1.29-.32 2-.49 3-.95 5.73-.52 7.85.75 3.75 5.35 5.92 8.26 6.47a14.09 14.09 0 0 0 2.5.23 11.86 11.86 0 0 0 8.22-3.21l.92-.88.25-1.26c.08-.43.18-.87.28-1.31s.24-1 .34-1.54c.56-2.87 1-5.85 1.47-8.9s1-6.59 1.49-9.51c1.37.13 2.77.24 4.16.24 7 0 9.33-3.46 10-6.37a10.2 10.2 0 0 0-1.09-8c-1.82-2.91-5.19-4.88-10.3-6l-1-.23c-2.35-.55-7.22-1.68-12.95-2.67-3.48-.61-5.28-.89-8.78-1.39a12.4 12.4 0 0 0-1.48-.1z" fill="#45413c"></path><path d="M271.42 91.05h-.55a49.16 49.16 0 0 1-7.08-1.89l-.56-.17c-4.56-1.41-8.86-2.74-7.39-8.69.3-1.18 1-3.93 3.69-4.52a7.08 7.08 0 0 0 1.43-.42c.77-2.51 1.49-5.33 2.25-8.3.32-1.26.65-2.55 1-3.86.18-.68.41-1.41.64-2.15s.44-1.43.62-2.14a8.72 8.72 0 0 0 .47-2.83c0-.1 0-.23-.73-.7-1.77-1.19-2.41-3.37-1.76-6a7.42 7.42 0 0 1 2-3.75 5.8 5.8 0 0 1 4-1.27 24.37 24.37 0 0 1 6.69 1.3l1.55.49c3.77 1.2 10.8 3.43 9.3 9.41l-.24.74a5.75 5.75 0 0 1-5.69 4.37c-.36 1-.73 2.25-1.07 3.37-.13.44-.25.87-.37 1.27l-1.7 5.58c-.46 1.51-1 3.09-1.54 4.62s-1 2.93-1.42 4.24c2 2 2.82 3.39 1.77 6.71-.93 2.92-2.86 4.59-5.31 4.59z" fill="#ffcd21"></path><path d="M269.46 46.34a22.44 22.44 0 0 1 6.1 1.21l1.53.48c6.19 2 8.77 3.83 8 7l-.2.62c-.8 2.5-2.31 3-4.39 3a1.14 1.14 0 0 0-1.08.76c-.59 1.48-1.18 3.62-1.68 5.27L276 70.29c-.88 2.91-2.13 6.13-3 8.86a1.65 1.65 0 0 0 .4 1.85c1.76 1.73 2.21 2.34 1.42 4.84-.54 1.71-1.59 3.18-3.4 3.18h-.35a56.15 56.15 0 0 1-7.25-2c-5.15-1.59-7-2.48-6-6.3.33-1.33.81-2.75 2.16-3 1.62-.35 2.61-.77 2.81-1.43 1.15-3.7 2.17-8 3.38-12.6.35-1.33.88-2.85 1.26-4.29a11.74 11.74 0 0 0 .52-3.57 2.92 2.92 0 0 0-1.61-2.13c-1.13-.76-1.33-2.23-.93-3.85a5.68 5.68 0 0 1 1.38-2.71 4 4 0 0 1 2.7-.79m0-4a7.71 7.71 0 0 0-5.35 1.8 9.63 9.63 0 0 0-2.61 4.73c-.83 3.34.05 6.3 2.37 8-.06.34-.16.84-.34 1.52s-.39 1.36-.61 2-.46 1.5-.65 2.23c-.35 1.32-.68 2.61-1 3.87-.65 2.56-1.28 5-1.92 7.21l-.25.06c-3.92.85-4.88 4.72-5.2 6-1.93 7.78 4.49 9.77 8.74 11.08l.55.17a47.17 47.17 0 0 0 7.49 2 6.12 6.12 0 0 0 .74 0c3.33 0 6-2.23 7.21-6s.28-6-1.41-7.85c.32-1 .68-2 1.06-3.09.53-1.54 1.09-3.14 1.56-4.68l1.7-5.58.38-1.3c.2-.68.42-1.4.63-2.08a7.6 7.6 0 0 0 6.12-5.61l.2-.62v-.25c1.95-7.79-6.87-10.6-10.64-11.8l-1.55-.49a26.23 26.23 0 0 0-7.29-1.39z" fill="#45413c"></path><path d="M304.82 104.81a8.55 8.55 0 0 1-3.84-.91c-5.06-2.6-6.15-11.56-7.12-19.47a81.77 81.77 0 0 1-4.22 8.67c-1.27 2.1-3.95 2.84-5.86 2.84a6.59 6.59 0 0 1-2.41-.43 2.72 2.72 0 0 1-.53-.28c-5.68-3.13-2.81-14.13-.15-22.13l.79-2.37a85.86 85.86 0 0 1 5.06-11.92 8.78 8.78 0 0 1 7.9-5.09 8.46 8.46 0 0 1 3.07.58c3.91 1.58 6.76 4.87 8.24 9.53.74 2.34 1.69 7.67 2.54 12.5 2.29-5.1 5.45-11.09 11-11.09a8.55 8.55 0 0 1 4 1.06 6.57 6.57 0 0 1 3.55 5.57c.23 2.65-1.54 6.89-4.66 13.25l-.52 1.06c-3.73 7.64-8.26 13.85-12.73 17.48l-.08.07h-.1a7.05 7.05 0 0 1-3.93 1.08z" fill="#ffcd21"></path><path d="M294.43 55.68a6.15 6.15 0 0 1 2.32.44c3.39 1.36 5.79 4.2 7.09 8.27 1.12 3.55 2.89 15.16 3.74 19.14l.28-.65c.49-1.28.91-2.73 1.55-4.19 2.33-5.32 5.2-11.49 9.82-11.49a6.66 6.66 0 0 1 3.06.83 4.55 4.55 0 0 1 2.48 3.86c.3 2.45-2.4 8.12-4.45 12.31l-.52 1.07c-3.41 7-7.71 13.15-12.2 16.79a5.07 5.07 0 0 1-2.78.75 6.54 6.54 0 0 1-2.93-.69c-5.67-2.91-5.52-18.17-7.12-25l-.93 2.25A119.2 119.2 0 0 1 287.93 92a5 5 0 0 1-4.15 1.88 4.61 4.61 0 0 1-1.67-.28c-.11 0-.2-.15-.32-.2-4.54-2.5-1.12-14 .79-19.74.31-.94.47-1.42.79-2.37a84.54 84.54 0 0 1 4.95-11.66 6.73 6.73 0 0 1 6.11-4m0-4a10.75 10.75 0 0 0-9.69 6.2 88.61 88.61 0 0 0-5.17 12.18l-.42 1.26-.37 1.11c-3.11 9.38-5.81 20.63 1 24.47a4.45 4.45 0 0 0 .83.44 8.45 8.45 0 0 0 3.15.57c2.43 0 5.87-1 7.58-3.81.45-.75.94-1.65 1.45-2.66 1.05 6.22 2.84 12 7.26 14.24a10.45 10.45 0 0 0 4.75 1.13 9.08 9.08 0 0 0 4.95-1.39l.18-.11.17-.14c4.69-3.81 9.41-10.25 13.27-18.15l.52-1.06c3.3-6.75 5.08-11.07 4.86-14.2a8.49 8.49 0 0 0-4.63-7.27 10.5 10.5 0 0 0-4.91-1.29c-4.57 0-7.72 3.19-10 6.94-.55-2.89-1.09-5.46-1.56-7-1.67-5.24-4.92-9-9.4-10.77a10.22 10.22 0 0 0-3.82-.73z" fill="#45413c"></path><path d="M339.49 123.75a24.48 24.48 0 0 1-13.5-4.58c-7.41-5.07-13.59-15.89-6.64-29.67a21.31 21.31 0 0 1 19-12 23.14 23.14 0 0 1 12.84 4.11c5.6 3.76 9.54 9.08 10.53 14.25a10.36 10.36 0 0 1-1.39 8 4.18 4.18 0 0 1-3.56 1.86 9.62 9.62 0 0 1-5.41-2.23 10.13 10.13 0 0 1-3.11-3.28 14.77 14.77 0 0 1-.94-2.06 7.3 7.3 0 0 0-3.26-4.15 6.09 6.09 0 0 0-3.43-1.14c-2.54 0-5.09 1.86-6.85 5-1.31 2.35-2.83 6.72 1.76 9.72a6.64 6.64 0 0 0 2.51 1.05c-4.15-3.11-2.25-6.29-1.53-7.5a5.29 5.29 0 0 1 4.69-2.76c2.64 0 5.44 1.76 7.59 3.29a34.34 34.34 0 0 1 2.73 2.14c2.78 2.47 3.83 5.24 3.11 8.22a15.58 15.58 0 0 1-2.22 4.8l-.17.25a14.9 14.9 0 0 1-12.75 6.68z" fill="#ffcd21"></path><path d="M338.31 79.51A21 21 0 0 1 350 83.28c8.28 5.55 12.09 14.36 8.61 19.45a2.2 2.2 0 0 1-1.91 1 8.16 8.16 0 0 1-4.23-1.84 8.26 8.26 0 0 1-2.47-2.65c-1.26-2.19-1.06-4.38-4.8-6.89a8 8 0 0 0-4.54-1.48c-3.4 0-6.56 2.39-8.59 6-2.74 4.89-1.92 9.55 2.41 12.37a7.78 7.78 0 0 0 4.2 1.43 3.57 3.57 0 0 0 3.09-1.41l.19-.3c-1-.73-1.49-1.09-2.49-1.81-2.95-2.09-2-3.74-1.2-5a3.31 3.31 0 0 1 3-1.79c1.94 0 4.26 1.37 6.42 2.92a32 32 0 0 1 2.57 2c2.43 2.16 3 4.24 2.5 6.26a13.66 13.66 0 0 1-1.93 4.14l-.17.24a12.93 12.93 0 0 1-11.1 5.83 22.55 22.55 0 0 1-12.37-4.23c-11.26-7.71-9.6-19.94-6-27.12a19.35 19.35 0 0 1 17.17-10.89m0-4a23.29 23.29 0 0 0-20.79 13.09c-5.08 10.07-4.8 23.94 7.29 32.22a26.46 26.46 0 0 0 14.63 4.93 17 17 0 0 0 14.4-7.56l.08-.12.08-.12a17.9 17.9 0 0 0 2.53-5.47 9.23 9.23 0 0 0-.09-4.77h.24a6.22 6.22 0 0 0 5.21-2.74 12.33 12.33 0 0 0 1.71-9.49C362.56 89.81 358.3 84 352.26 80a25.1 25.1 0 0 0-13.95-4.45zm-3.17 24.06c.11-.24.24-.48.38-.74 1.37-2.44 3.33-4 5.1-4a4.2 4.2 0 0 1 2.31.79 6.77 6.77 0 0 1 1.44 1.38 9.91 9.91 0 0 0-3.22-.59 7.2 7.2 0 0 0-6.06 3.21z" fill="#45413c"></path><path d="M157.85 328.77a9.46 9.46 0 0 1-6.76-2.8l-19.81-19.8a9.56 9.56 0 0 1 0-13.52l19.81-19.8a9.55 9.55 0 1 1 13.51 13.51l-13 13.05 13 13a9.56 9.56 0 0 1-6.75 16.31z" fill="#9ceb60"></path><path d="M157.85 272.05a7.56 7.56 0 0 1 5.34 12.9l-14.46 14.46 14.46 14.46a7.56 7.56 0 0 1-10.69 10.69l-19.8-19.81a7.55 7.55 0 0 1 0-10.68l19.8-19.81a7.57 7.57 0 0 1 5.35-2.21m0-4a11.48 11.48 0 0 0-8.18 3.39l-19.8 19.8a11.54 11.54 0 0 0 0 16.34l19.8 19.81A11.56 11.56 0 0 0 166 311.05l-11.64-11.64L166 287.78a11.56 11.56 0 0 0-8.17-19.73z" fill="#45413c"></path><path d="M219 328.77a9.55 9.55 0 0 1-6.75-16.31l13-13-13-13.05a9.55 9.55 0 1 1 13.51-13.51l19.8 19.8a9.56 9.56 0 0 1 0 13.52L225.75 326a9.46 9.46 0 0 1-6.75 2.77z" fill="#9ceb60"></path><path d="M219 272.05a7.57 7.57 0 0 1 5.35 2.21l19.8 19.81a7.55 7.55 0 0 1 0 10.68l-19.8 19.81a7.56 7.56 0 1 1-10.69-10.69l14.46-14.46L213.65 285a7.56 7.56 0 0 1 5.34-12.9m0-4a11.56 11.56 0 0 0-8.17 19.73l11.64 11.63-11.64 11.64a11.55 11.55 0 0 0 16.34 16.34L247 307.58a11.56 11.56 0 0 0 0-16.34l-19.81-19.81a11.47 11.47 0 0 0-8.17-3.38z" fill="#45413c"></path><path d="M177.44 328.77a9.55 9.55 0 0 1-8.39-14.1l21.43-39.61a9.56 9.56 0 1 1 16.81 9.09l-21.44 39.61a9.54 9.54 0 0 1-8.41 5.01z" fill="#9ceb60"></path><path d="M198.89 272.05a7.55 7.55 0 0 1 6.64 11.15l-21.43 39.61a7.56 7.56 0 0 1-13.3-7.19L192.24 276a7.55 7.55 0 0 1 6.65-4m0-4a11.55 11.55 0 0 0-10.17 6.06l-21.43 39.61a11.55 11.55 0 0 0 20.32 11l21.44-39.61A11.55 11.55 0 0 0 198.9 268z" fill="#45413c"></path><path d="M89.85 226.32c2.64-7.06-11.83-14.78-19.55-4.77-18.15 23.51-27.59 73.6-8.17 96.05 20.5 23.69 54.54 20.51 74.27 17.43s13.16-23.25-.42-21.91c-8.2.8-35.8 4-35.8-22.3-.45-18.72 22.3-16.82 37.45-10.73 19.14 7.69 23.25-15.55 13.14-23.55-8.16-6.45-22.85-11.79-50.84-2 2.11-9.93 4.39-16.34 11.54-24.67s-5.69-19.8-13.88-13.42c-4.68 3.7-7.74 9.87-7.74 9.87z" fill="#ffffff"></path><path d="M118.44 327.7c-27.93 0-52.5-15.14-66.72-38.05 1 11 4.26 20.84 10.41 28 20.5 23.69 54.54 20.51 74.27 17.43 10.42-1.64 13.5-8 12.09-13.5a76 76 0 0 1-30.05 6.12z" fill="#f0f0f0"></path><path d="M89.85 226.32c2.64-7.06-11.83-14.78-19.55-4.77-18.15 23.51-27.59 73.6-8.17 96.05 20.5 23.69 54.54 20.51 74.27 17.43s13.16-23.25-.42-21.91c-8.2.8-35.8 4-35.8-22.3-.45-18.72 22.3-16.82 37.45-10.73 19.14 7.69 23.25-15.55 13.14-23.55-8.16-6.45-22.85-11.79-50.84-2 2.11-9.93 4.39-16.34 11.54-24.67s-5.69-19.8-13.88-13.42c-4.68 3.7-7.74 9.87-7.74 9.87z" fill="none" stroke="#45413c" stroke-linecap="round" stroke-linejoin="round" stroke-width="4"></path><path d="M89.85 226.32S81 243.41 76.63 269.09" stroke="#45413c" stroke-linecap="round" stroke-linejoin="round" stroke-width="4" fill="#ffffff"></path></g></svg>