<svg xmlns="http://www.w3.org/2000/svg" fill="none" viewBox="0 0 14 14" height="48" width="48"><g id="dislike-1--reward-down-thumb-hand-social-media-dislike-rating"><path id="Union" fill="#000000" fill-rule="evenodd" d="M4.41074 1.03843C4.7467 0.878304 5.11418 0.795208 5.48636 0.795208L10.8324 0.795208C12.0641 0.795208 13.1122 1.69221 13.3024 2.90906L13.9283 6.91232C14.1179 8.12532 13.18 9.22124 11.9523 9.22124L8.66856 9.22124L8.66856 11.5789C8.66856 12.4765 7.94091 13.2041 7.04331 13.2041C6.45501 13.2041 5.91263 12.8862 5.62522 12.3729L3.54788 8.6628C3.42251 8.4389 3.35668 8.18658 3.35668 7.92997L3.35668 2.48755C3.35668 1.90918 3.6892 1.38233 4.21131 1.13348L4.41074 1.03843ZM1.04363 8.47956C0.779379 8.47956 0.525952 8.37458 0.339098 8.18773C0.152245 8.00088 0.0472722 7.74745 0.0472722 7.4832L0.0472727 2.37057C0.0472727 2.10633 0.152245 1.8529 0.339098 1.66605C0.525951 1.47919 0.779378 1.37422 1.04363 1.37422L1.04384 1.37422L1.5402 1.37444C1.81626 1.37455 2.03998 1.59838 2.03998 1.87443L2.03998 7.97977C2.03998 8.11241 1.98727 8.23962 1.89346 8.3334C1.79964 8.42717 1.67241 8.47983 1.53977 8.47977L1.04363 8.47956Z" clip-rule="evenodd"></path></g></svg>