<svg xmlns="http://www.w3.org/2000/svg" viewBox="0 0 370 370" height="250" width="250"><g data-name="Scenes"><path d="M362.51 224.69c0 103.26-78.35 107.08-175 107.08S12.5 328 12.5 224.69s78.35-187 175-187 175.01 83.74 175.01 187z" fill="#ffe8d1"></path><path d="M340.23 293c-6.1 3.91-45.1 21.81-135.7 21.81-47.84 0-91.67-9.93-91.67-14.25s38.78-7.83 86.62-7.83c35.74 0 95.56-13.24 124.22-14.26 9.71-.38 29.46 6.22 16.53 14.53z" fill="#ffcc99"></path><path d="M314.56 268.18c-15.35-30.92-42.46-30.79-42.76-30.79a87.45 87.45 0 0 0 1.65-43.39 84.68 84.68 0 0 0-65.27-65.28c-55.59-11.69-104.55 30.4-104.55 83.93a85.89 85.89 0 0 0 85.89 85.89A85.47 85.47 0 0 0 234.29 286c42.1 20.22 67.5 4.19 70.7-.45 10.65 4.3 32.3 2.07 32.3 2.07 0-14.82-22.73-19.44-22.73-19.44z" fill="#ffffff"></path><path d="M273.45 194a84 84 0 0 0-12.6-29.75q1.15 3.72 2 7.58c11.69 55.58-30.41 104.54-83.93 104.54a85.83 85.83 0 0 1-71.37-38.08 85.94 85.94 0 0 0 82 60.25c53.5 0 95.59-48.96 83.9-104.54z" fill="#f0f0f0"></path><path d="M186.62 298.49c1 0 1.93.05 2.9.05h0A85.47 85.47 0 0 0 234.29 286c42.1 20.22 67.5 4.19 70.7-.45 10.65 4.3 32.3 2.07 32.3 2.07 0-14.78-22.73-19.4-22.73-19.4h0c-15.35-30.92-42.46-30.79-42.76-30.79a87.45 87.45 0 0 0 1.65-43.43 84.68 84.68 0 0 0-65.27-65.28c-55.59-11.69-104.55 30.4-104.55 83.93a85.84 85.84 0 0 0 42.66 74.23" stroke-linecap="round" stroke-linejoin="round" stroke-width="4" stroke="#45413c" fill="none"></path><path d="M266.86 250a32.36 32.36 0 0 1 4.68 25.84c-2.65 11.3-10.89 20.4-23.17 25.61-8.37 3.55-18.59 5.33-30.56 5.33a153.89 153.89 0 0 1-22.25-1.75 11.89 11.89 0 0 1 3.44-23.48c30.72 4.51 45.33-1.84 48.75-9.28M106.6 218.9a27.8 27.8 0 1 0 21.4-18.39 54.46 54.46 0 0 1-21.4 18.39z" stroke-linecap="round" stroke-linejoin="round" stroke-width="4" stroke="#45413c" fill="#ffffff"></path><path d="M132.71 192.18a54.61 54.61 0 0 1-35.95 30.34" stroke-linecap="round" stroke-linejoin="round" stroke-width="4" stroke="#45413c" fill="none"></path><circle cx="128.83" cy="224.02" r="3.97" fill="#45413c"></circle><circle cx="203.23" cy="227.82" r="27.68" fill="#dabff5" stroke-linecap="round" stroke-linejoin="round" stroke-width="4" stroke="#45413c"></circle><path d="M175.61 225.92a27.84 27.84 0 0 0 5.77 18.9c5.43-4 13.77-7.69 23.47-9.91s18.8-2.54 25.45-1.26a27.76 27.76 0 0 0-3-19.53c-6.74-1.65-16.51-1.46-27 .93s-19.3 6.46-24.69 10.87z" stroke-linecap="round" stroke-linejoin="round" stroke-width="4" stroke="#45413c" fill="#ffffff"></path><circle cx="198.9" cy="218.43" r="3.97" fill="#45413c"></circle><path d="M183.47 298.33c-9.9 1.82-29.74 9.41-59.63-6.4-19.2-10.16-43.09-31.68-47.7-76.89a11.54 11.54 0 0 1 10.31-12.65c6.34-.64 13.39 3.86 14 10.2 5 48.92 39 70.58 45.81 74.29M12.6 162.64a49.45 49.45 0 0 1 35 .5 49.84 49.84 0 0 0 29 2.27c-3.21-17.33-3-31.55 1.45-46-9.71 2.35-20.79-.16-29.77-3.89a49.5 49.5 0 0 0-35-.49 94.09 94.09 0 0 0-.68 47.61z" stroke-linecap="round" stroke-linejoin="round" stroke-width="4" stroke="#45413c" fill="#ffffff"></path><path fill="#ffe500" stroke-linecap="round" stroke-linejoin="round" stroke-width="4" stroke="#45413c" d="m81.45 193.54 3.44-75.17 17.38.95-2.93 75.22-17.89-1z"></path><path fill="#f7e5c6" stroke-linecap="round" stroke-linejoin="round" stroke-width="4" stroke="#45413c" d="m84.89 118.37 9.96-17.88 7.42 18.83-17.38-.95z"></path><path d="m80.91 203.21 17.89 1a8.87 8.87 0 0 1-9.36 8.36h-.16a8.88 8.88 0 0 1-8.37-9.36z" fill="#ff866e" stroke-linecap="round" stroke-linejoin="round" stroke-width="4" stroke="#45413c"></path><path fill="#e0e0e0" stroke-linecap="round" stroke-linejoin="round" stroke-width="4" stroke="#45413c" d="m81.442 193.538 17.882 1-.54 9.675-17.883-1z"></path><path d="M112.53 119.58c-5 1.79-10.26-.23-10.26-.23s2.79-4.92 7.78-6.71 9.58-1.68 10.26.23-2.79 4.92-7.78 6.71z" stroke-linecap="round" stroke-linejoin="round" stroke-width="4" stroke="#45413c" fill="none"></path><path d="M105.81 129c-3.49-4-3.54-9.64-3.54-9.64s5.6.8 9.09 4.78 5.08 8.3 3.55 9.64-5.61-.78-9.1-4.78zm4.94 34.55c-5 1.79-10.27-.23-10.27-.23s2.8-4.92 7.78-6.7 9.58-1.69 10.27.23-2.79 4.92-7.78 6.7z" stroke-linecap="round" stroke-linejoin="round" stroke-width="4" stroke="#45413c" fill="none"></path><path d="M104 173c-3.49-4-3.55-9.64-3.55-9.64s5.6.8 9.09 4.78 5.08 8.3 3.55 9.64-5.57-.84-9.09-4.78z" stroke-linecap="round" stroke-linejoin="round" stroke-width="4" stroke="#45413c" fill="none"></path><path d="M76.59 165.41s13.52 1 23.89-2.06m1.79-44a57.88 57.88 0 0 0-24.23.07" stroke-linecap="round" stroke-linejoin="round" stroke-width="4" stroke="#45413c" fill="#ffffff"></path><path d="M161.05 264.66a7.86 7.86 0 0 1 15.23-3.91" stroke-linecap="round" stroke-linejoin="round" stroke-width="4" stroke="#45413c" fill="none"></path><path d="M287.28 263.94c.8 1.61 1.56 3.3 2.28 5.09" stroke-linecap="round" stroke-linejoin="round" stroke-width="4" stroke="#45413c" fill="#ffffff"></path><path d="M216.74 140.86c13.35-2 13.23-9.7 19.75-16.91a17.59 17.59 0 1 1 26.09 23.6c-6.51 7.2-12.78 10.35-13.94 21.2a55.51 55.51 0 0 1-31.9-27.89z" fill="#fff0ed"></path><path d="M238.23 122.27c-1.93 7.22-.6 14.31 4.22 18.68 6 5.4 15.56 5.05 23.93-.11a17.59 17.59 0 0 0-28.15-18.57z" fill="#ffa694"></path><path d="M216.74 140.86c13.35-2 13.23-9.7 19.75-16.91a17.59 17.59 0 1 1 26.09 23.6c-6.51 7.2-12.78 10.35-13.94 21.2m10.43 94.31a85.49 85.49 0 0 0 12.73-25.67" stroke-linecap="round" stroke-linejoin="round" stroke-width="4" stroke="#45413c" fill="none"></path><path d="M76.87 220.93c-6-4.88-5.55-10.56-5.55-13.58 0-19.77 32.36-18.06 35.41-9.32s.79 23.63-18.16 17.18" stroke-linecap="round" stroke-linejoin="round" stroke-width="4" stroke="#45413c" fill="#ffffff"></path><path stroke="#ffcabf" stroke-linecap="round" stroke-linejoin="round" stroke-width="4" fill="none" d="m147.38 158.86-10.79 10.79m24.13-10.79-10.79 10.79m24.13-10.79-10.79 10.79"></path></g></svg>