<svg xmlns="http://www.w3.org/2000/svg"  viewBox="0 0 16 16" width="16px" height="16px"><path d="M 10.5 1 C 9.851563 1 9.300781 1.421875 9.09375 2 L 2 2 L 2 3 L 9.09375 3 C 9.300781 3.578125 9.851563 4 10.5 4 C 11.148438 4 11.699219 3.578125 11.90625 3 L 14 3 L 14 2 L 11.90625 2 C 11.699219 1.421875 11.148438 1 10.5 1 Z M 10.5 2 C 10.78125 2 11 2.21875 11 2.5 C 11 2.78125 10.78125 3 10.5 3 C 10.21875 3 10 2.78125 10 2.5 C 10 2.21875 10.21875 2 10.5 2 Z M 5.5 6 C 4.851563 6 4.300781 6.421875 4.09375 7 L 2 7 L 2 8 L 4.09375 8 C 4.300781 8.578125 4.851563 9 5.5 9 C 6.148438 9 6.699219 8.578125 6.90625 8 L 14 8 L 14 7 L 6.90625 7 C 6.699219 6.421875 6.148438 6 5.5 6 Z M 5.5 7 C 5.78125 7 6 7.21875 6 7.5 C 6 7.78125 5.78125 8 5.5 8 C 5.21875 8 5 7.78125 5 7.5 C 5 7.21875 5.21875 7 5.5 7 Z M 10.5 11 C 9.851563 11 9.300781 11.421875 9.09375 12 L 2 12 L 2 13 L 9.09375 13 C 9.300781 13.578125 9.851563 14 10.5 14 C 11.148438 14 11.699219 13.578125 11.90625 13 L 14 13 L 14 12 L 11.90625 12 C 11.699219 11.421875 11.148438 11 10.5 11 Z M 10.5 12 C 10.78125 12 11 12.21875 11 12.5 C 11 12.78125 10.78125 13 10.5 13 C 10.21875 13 10 12.78125 10 12.5 C 10 12.21875 10.21875 12 10.5 12 Z"/></svg>