<svg xmlns="http://www.w3.org/2000/svg" fill="none" viewBox="0 0 24 24" height="48" width="48"><path stroke="#000000" stroke-linejoin="round" stroke-width="2" d="M17 19H7V23H17V19Z"></path><path stroke="#000000" stroke-linejoin="round" stroke-width="2" d="M4 23H20"></path><path stroke="#000000" stroke-linejoin="round" stroke-width="2" d="M12 14V19"></path><path stroke="#000000" stroke-linejoin="round" stroke-width="2" d="M5 3H1V8C1 8.79565 1.31607 9.55871 1.87868 10.1213C2.44129 10.6839 3.20435 11 4 11H6.256"></path><path stroke="#000000" stroke-linejoin="round" stroke-width="2" d="M19 3H23V8C23 8.79565 22.6839 9.55871 22.1213 10.1213C21.5587 10.6839 20.7957 11 20 11H17.744"></path><path stroke="#000000" stroke-linejoin="round" stroke-width="2" d="M19 7C19 8.85652 18.2625 10.637 16.9497 11.9497C15.637 13.2625 13.8565 14 12 14C10.1435 14 8.36301 13.2625 7.05025 11.9497C5.7375 10.637 5 8.85652 5 7V1H19V7Z"></path></svg>