<svg xmlns="http://www.w3.org/2000/svg" viewBox="0 0 370 370" height="250" width="250"><g data-name="Scenes"><path d="M87.18 222.58a.24.24 0 0 1 .08.19.27.27 0 0 1-.08.19L9.5 293.53a1.49 1.49 0 0 1-1.6.26 1.46 1.46 0 0 1-.9-1.34v-8.71c0-.43.6-.94 1-1.27 6.38-4.77 12.7-9.47 19-14.27 5.73-4.35 11.42-8.76 17.15-13.12q21.32-16.17 42.65-32.31c.11-.08.25-.12.38-.19zM7 78.58a1.46 1.46 0 0 1 .82-1.33 1.49 1.49 0 0 1 1.56.15l85.42 64.17a.38.38 0 0 1 .09.51c-1.42-.87-2.85-1.72-4.25-2.61L52.4 115.09c-7.5-4.77-15.05-9.48-22.58-14.21L8.19 87.24A2.34 2.34 0 0 1 7 84.94v-6.36zm263.56-37.79a1.47 1.47 0 0 1 1.38.89 1.45 1.45 0 0 1-.3 1.6l-82.71 83.94a.36.36 0 0 1-.49 0c2-2.32 4-4.65 6-7l17.38-20 30.95-35.42c6.14-7 12.45-13.94 18.35-21.18 1.89-2.32 3.71-3.21 6.54-2.93a27.53 27.53 0 0 0 2.9.1zm-61.05 93.72a.45.45 0 0 1-.1-.31.43.43 0 0 1 .17-.28c22.38-15.58 112-73.68 134.68-89.46a1.48 1.48 0 0 1 2.34 1.19c0 2.12 0 4.12-.06 6.11 0 .42-.63.93-1.09 1.19-12.51 7.11-92.3 56.69-104.81 63.8-10 5.68-19.93 11.41-29.89 17.11-.41.23-.83.43-1.24.65zm-183-91.33a1.44 1.44 0 0 1-.26-1.58 1.51 1.51 0 0 1 1.35-.88c1.82 0 3.5 0 5.18.05a2.12 2.12 0 0 1 1.41.75Q49.13 60.39 64 79.31 74.77 93 85.5 106.63c.19.23.35.48.52.72a.44.44 0 0 1-.1.58zm300.3 263.5A1.48 1.48 0 0 1 326 308a1.52 1.52 0 0 1-1.56-.16c-20.28-15.58-87.75-66.28-107.77-81.65a.32.32 0 0 1-.08-.41c1.48.86 3 1.7 4.42 2.6q17.94 11.06 35.87 22.14c7.26 4.49 62 44.33 69.19 48.86a1.73 1.73 0 0 1 .73 1.22c.01 1.99.01 3.97.01 6.08zM20.36 309a1.48 1.48 0 0 1-1.36-.89 1.44 1.44 0 0 1 .29-1.59l79-81.94a.39.39 0 0 1 .54 0l-4.64 5.23C88.14 236.54 82.07 243.3 76 250.1q-14.39 16.22-28.72 32.45c-5.65 6.37-11.36 12.69-17 19.05-1.85 2.08-3.61 4.25-5.52 6.27a3.58 3.58 0 0 1-2.14 1c-.73.07-1.47.13-2.26.13zM7 51.87a1.46 1.46 0 0 1 1-1.34 1.49 1.49 0 0 1 1.61.29l80.12 75.62a.37.37 0 0 1 0 .51c-1.83-1.58-3.67-3.14-5.5-4.73-8.34-7.25-16.65-14.53-25-21.75-9.62-8.3-19.23-16.53-28.85-24.82C23.06 69.32 15.8 62.93 8.47 56.6A3.52 3.52 0 0 1 7 53.39v-1.52zm150.32-11.04a1.48 1.48 0 0 1 1.47 1.66Q153.87 81 149 119.28a.36.36 0 0 1-.39.31q1.88-38.64 3.75-77.36a1.48 1.48 0 0 1 1.49-1.4zm27.54 197.44a.4.4 0 0 1 .26-.06.37.37 0 0 1 .22.14l46.85 68.29a1.47 1.47 0 0 1-1.22 2.29c-1.33 0-2.56 0-3.79-.07-.46 0-1-.67-1.3-1.15-4-6.81-8-13.64-12-20.45q-8.15-13.78-16.36-27.54l-12.43-20.9a2.38 2.38 0 0 1-.23-.55zm-86.23 69.57a1.5 1.5 0 0 1-1.42 1h-3.64a1.48 1.48 0 0 1-1.23-.66 1.43 1.43 0 0 1-.14-1.37l25.53-60.73a.45.45 0 0 1 .57-.25zm159.55-1.33a1.45 1.45 0 0 1 .24 1.58 1.49 1.49 0 0 1-1.36.86c-.73 0-1.44 0-2.14-.08a2.75 2.75 0 0 1-1.62-1.07c-3.73-4.55-7.39-9.15-11.09-13.72q-11.7-14.43-23.42-28.84-8.56-10.58-17.07-21.22a.22.22 0 0 1 .34-.28zm-90.1-196.38a.25.25 0 0 1-.18-.31c.56-1.91 1.08-3.83 1.69-5.72 1.67-5.12 3.38-10.23 5.09-15.34 1.79-5.33 3.6-10.64 5.37-16q4.06-12.23 8.07-24.46c.69-2.08 1.35-4.16 2-6.24.29-.86.68-1.55 1.9-1.4a12.84 12.84 0 0 0 1.88.08 1.5 1.5 0 0 1 1.25.64 1.44 1.44 0 0 1 .15 1.38zM73.33 308.9a1.48 1.48 0 0 1-1.29-.72 1.46 1.46 0 0 1 0-1.47l31.61-55a.32.32 0 0 1 .43-.12q-3 6.26-6 12.51-6.61 13.81-13.24 27.62c-2.56 5.33-5.14 10.64-7.68 16a1.76 1.76 0 0 1-1.9 1.28c-.63-.09-1.26-.1-1.93-.1zM7.05 145.11a1.47 1.47 0 0 1 .57-1.11 1.51 1.51 0 0 1 1.28-.27l59.22 14.76a.4.4 0 0 1 .31.46l-5.08-.95q-6.57-1.16-13.15-2.33c-4.17-.75-8.33-1.55-12.51-2.29-5.26-.94-10.54-1.83-15.8-2.79-4.07-.74-8.13-1.56-12.2-2.34-.82-.15-1.66-.26-2.49-.4a.35.35 0 0 1-.14-.26c-.01-.79-.01-1.59-.01-2.48zM361 287.24a1.38 1.38 0 0 1-2 .94c-21.47-11.6-124.35-65-145.56-76.51a.44.44 0 0 1-.19-.58c1.52.71 3 1.4 4.56 2.14l34.7 16.9c8.26 4 98.2 50 106.49 53.93 1.47.69 2.38 1.47 2 3.18zM68.57 136.74a.44.44 0 0 1-.57.26 17 17 0 0 1-1.59-.64l-36.1-17.6c-7.49-3.64-15-7.26-22.46-10.92a1.56 1.56 0 0 1-.8-1c0-.35 0-.7-.06-1.06a1.47 1.47 0 0 1 .72-1.28 1.5 1.5 0 0 1 1.48 0zm150.62 45.84a.28.28 0 0 1 .28-.24c19.41 1 119.67 7.22 139.18 8.19a1.48 1.48 0 0 1 1.42 1.46v1.24a1.48 1.48 0 0 1-1.67 1.46c-19.48-2.28-119.76-9.84-139.21-12.11zM9.18 263.55a1.41 1.41 0 0 1-1.43.1 1.36 1.36 0 0 1-.75-1.21c0-3.53 0-3.5 3.13-5.26q14.52-8.19 29-16.4a.69.69 0 0 1 .91.22.67.67 0 0 1-.18.92zm-.35-62.76a1.49 1.49 0 0 1-1.23-.31 1.45 1.45 0 0 1-.54-1.13v-.17a1.46 1.46 0 0 1 1.26-1.45l63.8-9.73a.35.35 0 0 1 .4.28zM169 307.16a1.49 1.49 0 0 1-.28 1.19 1.51 1.51 0 0 1-1.09.57h-.23c-1 .11-1.29-.33-1.44-1.33-.73-4.82-1.61-9.62-2.39-14.43-.7-4.3-1.35-8.61-2-12.91q-1.19-7.62-2.36-15.26-1.11-7.17-2.24-14.34c-.19-1.18-.41-2.35-.63-3.53a.49.49 0 0 1 .39-.55c4.03 20.13 8.11 40.24 12.27 60.59zM7.74 240.7a.5.5 0 0 1-.49 0 .51.51 0 0 1-.24-.42c-.08-2.78-.06-2.73 2.61-3.86 7.17-3 14.3-6.11 21.47-9.14q13.83-5.87 27.7-11.67a.21.21 0 0 1 .21.39zm264.5 65.83a.92.92 0 0 1 0 1.31.93.93 0 0 1-1.32 0l-.16-.16c-4.29-4.67-8.66-9.28-13.05-13.86-7.34-7.66-14.73-15.27-22.08-22.93q-10.1-10.5-20.12-21.08a.24.24 0 0 1 0-.35.25.25 0 0 1 .35 0zm88.4-235.99a1.51 1.51 0 0 1 1.56.13 1.47 1.47 0 0 1 .57 1.44c-.19 1-.87 1.33-2.71 2.1-6.19 2.6-95.86 47.09-102 49.75q-12.82 5.52-25.65 11.08a.22.22 0 0 1-.28-.11.21.21 0 0 1 .1-.27c15.13-7.51 113.47-56.72 128.41-64.12zM113.73 81a.33.33 0 0 1-.4-.21c-4.66-12.62-9.31-25.25-14-38a1.46 1.46 0 0 1 .18-1.34 1.5 1.5 0 0 1 1.22-.63h.89A1.49 1.49 0 0 1 103 41.9zm37.39 226.3a1.43 1.43 0 0 1-.39 1.1 1.51 1.51 0 0 1-1.09.47 1.2 1.2 0 0 1-1.21-1.17l-1.08-51.14a.26.26 0 0 1 .26-.26c1.16 16.94 2.33 33.89 3.51 51zm209.65-176.15a1.52 1.52 0 0 1 1.22.3 1.46 1.46 0 0 1 .54 1.13c0 1-.45 1.1-2 1.35-4.82.75-92.85 21.08-97.68 21.81-3.25.5-6.49 1.06-9.75 1.55-3.78.56-7.58 1.06-11.36 1.62-3.53.53-7 1.1-10.57 1.65a.2.2 0 0 1-.24-.17.21.21 0 0 1 .16-.24c15.46-3.1 114.12-25.87 129.68-29zM238.4 40.77a1.48 1.48 0 0 1 1.49.7 1.45 1.45 0 0 1-.09 1.63l-21.52 28.17a.28.28 0 0 1-.34.09 2.84 2.84 0 0 1 .24-.73q9.34-14.52 18.74-29a2.34 2.34 0 0 1 1.48-.86zM82.38 92.8a.39.39 0 0 1-.29.09.36.36 0 0 1-.27-.15L43 41.51a.86.86 0 0 1 0-1c.69.39 1.61.61 2 1.19q11 14.72 21.73 29.53 7.38 10.08 14.75 20.15c.33.45.6.95.9 1.42zm136.24 215.81a.75.75 0 0 1-.91.15 2.3 2.3 0 0 1-1-.76c-2.77-5.09-5.44-10.23-8.2-15.33-3.66-6.71-7.38-13.39-11.06-20.09-.76-1.38-1.5-2.78-2.24-4.18a.44.44 0 0 1 .19-.6zm-31.82-1a.72.72 0 0 1-1.36.45v-.14c-1.81-6.18-3.71-12.33-5.62-18.48-2.1-6.76-4.25-13.5-6.37-20.25a.26.26 0 0 1 .17-.32.27.27 0 0 1 .33.16c4.24 12.83 8.53 25.66 12.85 38.58zM139.68 82.32a.27.27 0 0 1-.27-.26q-1.16-20.13-2.32-40.3a.67.67 0 0 1 1.33-.07.45.45 0 0 1 0 .11c.29 8.9.63 17.8.93 26.7.14 4.06.22 8.11.32 12.17.02.55.01 1.1.01 1.65zM35.37 180.11a.35.35 0 0 1 0 .69l-27.52 1.55a.66.66 0 0 1-.69-.58c-.08-.69.09-.7 1-.73 9.06-.32 18.13-.69 27.21-.93zm199.96-14.17a.33.33 0 0 1 .06-.27.32.32 0 0 1 .24-.14c2.13-.29 4.26-.6 6.39-.84 4.5-.5 9-.92 13.5-1.44s8.87-1.12 13.31-1.68c3.12-.38 90.53-10.52 93.65-10.85a.54.54 0 0 1 .25 0 .49.49 0 0 1-.07 1c-3.59.43-91.49 10.57-95.09 10.94q-11.76 1.23-23.52 2.41zM47.59 147.81a.35.35 0 0 1-.16.26.4.4 0 0 1-.3.05l-5.2-1.41-21.15-5.83c-4-1.11-8.08-2.18-12.1-3.35a8.67 8.67 0 0 1-1.14-.29.57.57 0 0 1 .4-1.07zm-.73 51.33a.29.29 0 0 1-.22.33l-38.85 9.82a.85.85 0 0 1-.9-.32c.33-.31.61-.79 1-.88 4.91-1.16 9.84-2.22 14.75-3.37s9.57-2.31 14.36-3.47c2.88-.7 5.75-1.42 8.64-2.09a5.6 5.6 0 0 1 1.22-.02zm87 108.31a1.47 1.47 0 0 1-1.48 1.4.94.94 0 0 1-.72-.33.93.93 0 0 1-.22-.75c1.05-7.18 2.1-14.26 3.14-21.35a.26.26 0 0 1 .28-.21c-.33 7.03-.66 14.06-1 21.24zM354.31 92.2a.84.84 0 0 1-.1 1.06 1.45 1.45 0 0 1-.46.33C345 96.94 261 131 252.26 134.35l-5.34 2a.26.26 0 0 1-.33-.15.26.26 0 0 1 .14-.33c10.79-4.31 96.8-39.37 107.58-43.67zm-286.5 5.32a.22.22 0 0 1 .29 0l8.41 8.3a.23.23 0 0 1 .07.15.24.24 0 0 1-.07.16c-1.77-1.65-3.58-3.27-5.3-5-1.21-1.13-2.27-2.39-3.4-3.61zm106.6-27.26a22.23 22.23 0 0 1-.27 2.6c-.11.44-.23.88-.37 1.32a.21.21 0 0 1-.26.14.2.2 0 0 1-.14-.25c.35-1.25.7-2.5 1-3.75a.06.06 0 0 0 .04-.06zM54.79 185.29l4.84-.49a.55.55 0 0 1 .39.12.5.5 0 0 1 .18.36h-5.41zm156.63-73.54a.11.11 0 0 0 .15 0l3.08-3.54a.42.42 0 0 1 .32-.15.47.47 0 0 1 .33.14z" fill="#e0e0e0"></path><path d="m283.45 179.8 3.18-48.37a8.91 8.91 0 0 1 8.89-8.31h5.54a8.9 8.9 0 0 1 8.88 8.28l3.78 54.31a4.44 4.44 0 0 1-4.44 4.76h-52.66a2.22 2.22 0 0 1-2.06-3.06l2.64-6.22a2.23 2.23 0 0 1 2.06-1.39z" stroke-linejoin="round" stroke="#45413c" stroke-linecap="round" stroke-width="4" fill="#e0e0e0"></path><path d="M346.53 169.51h-13.65V76.6h13.65A10.46 10.46 0 0 1 357 87.06v72a10.47 10.47 0 0 1-10.47 10.45z" fill="#daedf7" stroke-linejoin="round" stroke="#45413c" stroke-linecap="round" stroke-width="4"></path><rect x="222.09" y="76.6" width="123.97" height="92.92" rx="10.47" fill="#00b8f0"></rect><rect x="222.09" y="76.6" width="123.97" height="92.92" rx="10.47" fill="none" stroke-linejoin="round" stroke="#45413c" stroke-linecap="round" stroke-width="4"></rect><path d="M346.07 151.18V159a10.47 10.47 0 0 1-10.47 10.47h-103A10.47 10.47 0 0 1 222.09 159v-7.86zM194.5 179.91a1.86 1.86 0 0 1 1.82-1.45H280v12h-85.61a1.87 1.87 0 0 1-1.83-2.29z" fill="#ffffff" stroke-linejoin="round" stroke="#45413c" stroke-linecap="round" stroke-width="4"></path><path d="M263.58 179.91a1.86 1.86 0 0 1 1.82-1.45h26.17a1.88 1.88 0 0 1 1.82 1.45l1.93 8.27a1.87 1.87 0 0 1-1.82 2.29h-32.39z" fill="#daedf7" stroke-linejoin="round" stroke="#45413c" stroke-linecap="round" stroke-width="4"></path><path d="M339.35 190.47H159.14a10.61 10.61 0 0 0-10.61 10.61v105.23h190.82z" fill="#f7e5c6" stroke-linejoin="round" stroke="#45413c" stroke-linecap="round" stroke-width="4"></path><path d="M339.35 211.69H159.14a10.61 10.61 0 0 0-10.61 10.61v84h190.82z" fill="#f0d5a8" stroke-linejoin="round" stroke="#45413c" stroke-linecap="round" stroke-width="4"></path><path d="M359 190.47h-38.35A10.61 10.61 0 0 0 310 201.08v105.23h49z" fill="#f7e5c6"></path><path d="M357 190.47h-36.35A10.61 10.61 0 0 0 310 201.08v105.23h47" fill="none" stroke-linejoin="round" stroke="#45413c" stroke-linecap="round" stroke-width="4"></path><path d="M328.91 125.66a4.9 4.9 0 0 1-3.48-1.45l-3.58-3.57-3.58 3.57a4.94 4.94 0 1 1-7-7l3.58-3.57-3.58-3.58a4.94 4.94 0 0 1 7-7l3.58 3.58 3.58-3.58a4.93 4.93 0 1 1 7 7l-3.57 3.58 3.57 3.57a4.94 4.94 0 0 1-3.49 8.43z" fill="#80ddff"></path><path d="M328.91 103.66a2.89 2.89 0 0 1 2.08.86 2.93 2.93 0 0 1 0 4.15l-4.58 4.57a.59.59 0 0 0-.17.42.58.58 0 0 0 .17.41l4.58 4.58a2.93 2.93 0 1 1-4.15 4.15l-4.58-4.58a.58.58 0 0 0-.41-.17.63.63 0 0 0-.42.17l-4.57 4.58a2.93 2.93 0 1 1-4.15-4.15l4.57-4.58a.57.57 0 0 0 0-.83l-4.57-4.57a2.93 2.93 0 1 1 4.15-4.15l4.57 4.57a.58.58 0 0 0 .42.17.54.54 0 0 0 .41-.17l4.58-4.57a2.88 2.88 0 0 1 2.07-.86m0-4a6.88 6.88 0 0 0-4.9 2l-2.16 2.16-2.16-2.16a6.94 6.94 0 0 0-9.81 9.81l2.16 2.16-2.16 2.16a6.94 6.94 0 0 0 9.81 9.81l2.16-2.16 2.16 2.16a6.94 6.94 0 0 0 9.81-9.81l-2.16-2.16 2.16-2.16a6.94 6.94 0 0 0-4.91-11.84z" fill="#00658a"></path><path d="M252.46 125.66a4.91 4.91 0 0 1-3.49-1.45l-3.57-3.57-3.58 3.57a4.94 4.94 0 0 1-7-7l3.58-3.57-3.58-3.58a4.94 4.94 0 0 1 7-7l3.58 3.58 3.6-3.54a4.94 4.94 0 1 1 7 7l-3.58 3.58 3.58 3.57a4.94 4.94 0 0 1-3.49 8.43z" fill="#80ddff"></path><path d="M252.46 103.66a2.94 2.94 0 0 1 2.08 5l-4.54 4.58a.59.59 0 0 0-.17.42.58.58 0 0 0 .17.41l4.58 4.58a2.93 2.93 0 1 1-4.15 4.15l-4.58-4.58a.58.58 0 0 0-.41-.17.63.63 0 0 0-.42.17l-4.57 4.58a3 3 0 0 1-2.08.86 2.94 2.94 0 0 1-2.07-5l4.57-4.58a.58.58 0 0 0 .17-.41.59.59 0 0 0-.17-.42l-4.57-4.57a2.94 2.94 0 0 1 2.07-5 3 3 0 0 1 2.08.86l4.57 4.57a.58.58 0 0 0 .42.17.54.54 0 0 0 .41-.17l4.58-4.57a2.88 2.88 0 0 1 2.07-.86m0-4a6.88 6.88 0 0 0-4.9 2l-2.16 2.16-2.17-2.16a6.93 6.93 0 0 0-9.8 9.81l2.16 2.16-2.16 2.16a6.93 6.93 0 1 0 9.8 9.81l2.17-2.16 2.16 2.16a6.93 6.93 0 1 0 9.8-9.81l-2.16-2.16 2.16-2.16a6.94 6.94 0 0 0-4.9-11.84z" fill="#00658a"></path><path d="M300.16 123.52c-12.78-3.34-25.25-3.6-37.34-.24" fill="none" stroke-linejoin="round" stroke="#45413c" stroke-linecap="round" stroke-width="4"></path><path d="M266.05 142.41a15.45 15.45 0 0 0 30.9 0v-19.67a70.41 70.41 0 0 0-30.9-.27z" fill="#ff866e" stroke-linejoin="round" stroke="#45413c" stroke-linecap="round" stroke-width="4"></path><path fill="none" stroke-linejoin="round" stroke="#45413c" stroke-linecap="round" stroke-width="4" d="M281.5 139.37v-18.49"></path><path d="M228.28 154.9A68.68 68.68 0 1 0 116.45 223C87.91 235.17 49 264.63 64.84 274.73c4.47 2.85 9.52 1.6 15-1.6C62.1 291.16 48.46 306.4 53 306.4c11.09 0 35-17.82 35-17.82l49.7-2.37S121 306.4 125.85 306.4c6.33 0 42.94-18.14 35.65-29.84 8.8-1.85 16.16-4.57 19.72-7.85 9.81-9 8.64-22.56 1.09-32a68.67 68.67 0 0 0 45.97-81.81z" fill="#ffffff"></path><circle cx="139.75" cy="187.38" r="31.34" fill="#e0e0e0"></circle><path d="M188.46 167.84a31.35 31.35 0 0 0 31.34 31.35 30.8 30.8 0 0 0 4.64-.35 68.64 68.64 0 0 0-3.6-62.31h-1a31.34 31.34 0 0 0-31.38 31.31z" fill="#e0e0e0"></path><path d="M116.45 223a69.44 69.44 0 0 0 8.61 6.38c-13.06-21.57-3.56-44.9-3.56-44.9l108.08-22.94q-.48-3.33-1.29-6.66A68.68 68.68 0 1 0 116.45 223z" fill="#e0e0e0"></path><path d="M228.28 154.9A68.68 68.68 0 1 0 116.45 223C87.91 235.17 49 264.63 64.84 274.73c4.47 2.85 9.52 1.6 15-1.6C62.1 291.16 48.46 306.4 53 306.4c11.09 0 35-17.82 35-17.82l49.7-2.37S121 306.4 125.85 306.4c6.33 0 42.94-18.14 35.65-29.84 8.8-1.85 16.16-4.57 19.72-7.85 9.81-9 8.64-22.56 1.09-32a68.67 68.67 0 0 0 45.97-81.81z" fill="none" stroke-linejoin="round" stroke="#45413c" stroke-linecap="round" stroke-width="4"></path><circle cx="145.24" cy="104.53" r="6.87" fill="#ff512e" stroke-linejoin="round" stroke="#45413c" stroke-linecap="round" stroke-width="4"></circle><path d="M65 182.51a5.15 5.15 0 0 1 3.78-6.23l24.11-5.9a68.7 68.7 0 0 1 133.44-22.07l-124.84 30.57-30.27 7.41a5.15 5.15 0 0 1-6.22-3.78z" fill="#ff866e"></path><path d="m71.22 186.29 22.34-5.47a68.22 68.22 0 0 1-.68-10.44l-24.11 5.9a5.15 5.15 0 0 0 2.45 10zm91.84-22.49-1.23-5a3.44 3.44 0 0 1 2.52-4.15l24.18-5.92 1.94 8.36z" fill="#ff512e"></path><path d="M131.44 115.56a68.7 68.7 0 0 1 78.18 36.84l16.7-4.09a68.67 68.67 0 0 0-114.14-24.78 68.48 68.48 0 0 1 19.26-7.97z" fill="#ffcabf"></path><path d="M65 182.51a5.15 5.15 0 0 1 3.78-6.23l24.11-5.9a68.7 68.7 0 0 1 133.44-22.07l-124.84 30.57h0l-30.27 7.41a5.15 5.15 0 0 1-6.22-3.78z" fill="none" stroke-linejoin="round" stroke="#45413c" stroke-linecap="round" stroke-width="4"></path><path d="M188.53 148.73a10.3 10.3 0 1 0-20 4.9z" stroke-linejoin="round" stroke="#45413c" stroke-linecap="round" stroke-width="4" fill="#e0e0e0"></path><path d="M93 175.21c-.09-1.59-.13-3.17-.11-4.74" fill="#ffffff" stroke-linejoin="round" stroke="#45413c" stroke-linecap="round" stroke-width="4"></path><path d="m168.52 153.63-4.17 1a3.44 3.44 0 0 0-2.52 4.15l1.23 5" fill="none" stroke-linejoin="round" stroke="#45413c" stroke-linecap="round" stroke-width="4"></path><path d="M197.35 196.54c-2.27-7.88-5.75-13.7-12.36-11.9s-6.41 8.76-4.14 16.65c5.15-3.85 10.59-5.66 16.5-4.75z" fill="#ffa694" stroke-linejoin="round" stroke="#45413c" stroke-linecap="round" stroke-width="4"></path><path d="M206.46 136.74a29.19 29.19 0 1 1-15.41 33.1v-.21a58 58 0 0 0 15.41-32.89z" fill="#ffffff" stroke-linejoin="round" stroke="#45413c" stroke-linecap="round" stroke-width="4"></path><circle cx="225.34" cy="152.09" r="3.43" fill="#45413c"></circle><path d="M112.67 189a29.19 29.19 0 0 1 28.94-36.13 57.92 57.92 0 0 0 27.52 21.33c.08.31.17.61.24.91a29.19 29.19 0 1 1-56.7 13.89z" fill="#ffffff" stroke-linejoin="round" stroke="#45413c" stroke-linecap="round" stroke-width="4"></path><circle cx="146.96" cy="171.28" r="3.43" fill="#45413c"></circle><path d="M207 131.75q-1.44 24.06-18.27 40.25m-50.03-23.53q12.39 20.66 34.8 27.25M64.84 274.73c15.33 9.78 37.4-28.69 60.22-28.4m36.67-6.4a68.93 68.93 0 0 0 20.59-3.22M116.44 223a69 69 0 0 0 15.34 10.1" fill="none" stroke-linejoin="round" stroke="#45413c" stroke-linecap="round" stroke-width="4"></path><path d="M137.69 235.5a1.52 1.52 0 0 1 .74-1.05 1.54 1.54 0 0 1 1.29-.09 40.55 40.55 0 0 0 15 3.17 1.5 1.5 0 0 1 1.34.84 1.47 1.47 0 0 1-.16 1.56c-2.33 3-6.9 7.52-12.61 5.87-6.16-1.8-6.09-7.38-5.6-10.3z" fill="#e0e0e0"></path><path d="M28.42 270.07s31.81 2 77.11-2" fill="none" stroke-linejoin="round" stroke="#45413c" stroke-linecap="round" stroke-width="4"></path><path d="M187.4 246.55a21.46 21.46 0 0 1-6.18 22.16c-13.26 12.23-79.3 16.66-75.55-2.6s37.37-3.88 50.43-15.34" fill="#ffffff" stroke-linejoin="round" stroke="#45413c" stroke-linecap="round" stroke-width="4"></path><path fill="none" stroke-linejoin="round" stroke="#45413c" stroke-linecap="round" stroke-width="4" d="M201.46 306.4H11"></path><path d="M25.77 281.23h-9.12a3.91 3.91 0 1 1 0-7.82h9.12zm0-14.5h-9.12a3.91 3.91 0 1 1 0-7.82h9.12z" fill="#ffe500" stroke-linejoin="round" stroke="#45413c" stroke-linecap="round" stroke-width="4"></path><path d="M36.12 284.66a14.59 14.59 0 0 0 0-29.18H25.71v29.18z" fill="#ffffff" stroke-linejoin="round" stroke="#45413c" stroke-linecap="round" stroke-width="4"></path><path d="M25 198.47a2.27 2.27 0 0 1 2.38-3.74l30.14 16.65a2.26 2.26 0 0 1 .31 4.11l-10.88 6a2.22 2.22 0 0 0-1.16 1.68 2.27 2.27 0 0 0 .66 1.93l13.2 12.82a2.27 2.27 0 0 1-2.65 3.61l-34.62-18.11a2.26 2.26 0 0 1-1.22-2 2.29 2.29 0 0 1 1.18-2l12.71-7a2.22 2.22 0 0 0 1.15-1.67 2.26 2.26 0 0 0-.65-1.93zm-5.09 128.44a1.89 1.89 0 0 0 2 3.11l25-13.81a1.88 1.88 0 0 0 .25-3.41l-9-4.95a1.88 1.88 0 0 1-.4-3l10.94-10.63a1.88 1.88 0 0 0-2.19-3l-28.73 15a1.89 1.89 0 0 0-1 1.65 1.91 1.91 0 0 0 1 1.67l10.54 5.77a1.88 1.88 0 0 1 .42 3z" stroke="#ebcb00" stroke-width="5" fill="#ffe500" stroke-linejoin="round"></path></g></svg>