<svg xmlns="http://www.w3.org/2000/svg" fill="none" viewBox="-0.125 -0.125 24.25 24.25" stroke-width="1.75" height="48" width="48"><path stroke="#000000" stroke-linecap="round" stroke-linejoin="round" d="M12 20.25L23.25 13.25V7.5L17.5 3.75L12 7.25L6.5 3.75L0.75 7.5V13.25L12 20.25Z"></path><path stroke="#000000" stroke-linecap="round" stroke-linejoin="round" d="M6.25 8.25V13.25"></path><path stroke="#000000" stroke-linecap="round" stroke-linejoin="round" d="M8.75 10.75H3.75"></path><path stroke="#000000" stroke-miterlimit="10" d="M15.125 14.5C15.8154 14.5 16.375 13.9404 16.375 13.25C16.375 12.5596 15.8154 12 15.125 12C14.4346 12 13.875 12.5596 13.875 13.25C13.875 13.9404 14.4346 14.5 15.125 14.5Z"></path><path stroke="#000000" stroke-miterlimit="10" d="M19.25 11.25C19.9404 11.25 20.5 10.6904 20.5 10C20.5 9.30964 19.9404 8.75 19.25 8.75C18.5596 8.75 18 9.30964 18 10C18 10.6904 18.5596 11.25 19.25 11.25Z"></path></svg>